<svg width="48" height="49" viewBox="0 0 48 49" fill="none" xmlns="http://www.w3.org/2000/svg">
<rect width="48" height="48" transform="translate(0 0.62793)" fill="#A2238E"/>
<g clip-path="url(#clip0_34_285)">
<path d="M10.8515 20.3497L22.3572 27.2528C22.9522 27.6098 23.6184 27.7883 24.2857 27.7883C24.953 27.7883 25.6192 27.6098 26.2142 27.2528L37.7187 20.3497C38.0699 20.1385 38.2845 19.7593 38.2845 19.3498C38.2845 18.9403 38.0699 18.56 37.7187 18.35L26.2142 11.4457C25.0242 10.7317 23.546 10.7317 22.356 11.4457L10.8515 18.3488C10.5004 18.56 10.2857 18.9392 10.2857 19.3487C10.2857 19.7582 10.5004 20.1385 10.8515 20.3485V20.3497ZM25.0137 25.252C24.5645 25.5215 24.0057 25.5215 23.5565 25.252L19.9107 23.0645L24.2845 20.4407L28.6572 23.0645L25.0125 25.2508L25.0137 25.252ZM30.9264 21.7042L26.5537 19.0803L30.4784 16.726L34.851 19.3498L30.9264 21.7042ZM23.5577 13.4465C24.0069 13.1782 24.5645 13.1782 25.0137 13.4465L28.2104 15.3645L24.2857 17.72L20.361 15.3645L23.5577 13.4465ZM18.093 16.726L22.0177 19.0803L17.645 21.7042L13.7204 19.3498L18.093 16.726ZM10.4525 23.852C10.7827 23.2978 11.499 23.1205 12.0532 23.4518L23.5577 30.355C24.0069 30.6233 24.5657 30.6233 25.0149 30.355L36.5194 23.4518C37.0724 23.1205 37.7887 23.299 38.12 23.852C38.4514 24.405 38.2729 25.1213 37.7199 25.4527L26.2154 32.3558C25.6204 32.7128 24.953 32.8913 24.2869 32.8913C23.6207 32.8913 22.9534 32.7128 22.3584 32.3558L10.8515 25.4527C10.2985 25.1213 10.12 24.405 10.4514 23.852H10.4525ZM38.12 28.8628C38.4514 29.4158 38.2729 30.1322 37.7199 30.4635L26.2154 37.3667C25.6204 37.7248 24.953 37.9022 24.2869 37.9022C23.6207 37.9022 22.9522 37.7248 22.3572 37.3667L10.8515 30.4635C10.2985 30.1322 10.12 29.4158 10.4514 28.8628C10.7815 28.3098 11.4979 28.1302 12.052 28.4627L23.5565 35.3658C24.0057 35.6342 24.5645 35.6342 25.0125 35.3658L36.5182 28.4627C37.0712 28.1313 37.7887 28.3098 38.12 28.8628Z" fill="white"/>
</g>
<defs>
<clipPath id="clip0_34_285">
<rect width="28" height="28" fill="white" transform="translate(10.2856 10.9136)"/>
</clipPath>
</defs>
</svg>
