<svg width="57" height="56" viewBox="0 0 57 56" fill="none" xmlns="http://www.w3.org/2000/svg">
<rect width="56" height="56" transform="translate(0.5)" fill="#A2238E"/>
<path d="M46.9951 47.0774H11.5967C11.3805 47.0774 11.1797 46.9652 11.0658 46.7815C10.952 46.5978 10.9415 46.3677 11.0382 46.1742C11.1642 45.9083 11.6423 44.0717 12.1748 41.8075C12.2358 41.549 12.4528 41.3579 12.7163 41.3295C19.2423 40.6319 23.5293 41.5384 27.3122 42.3376C31.7878 43.2839 35.6528 44.101 42.0114 41.9246C42.1366 41.8815 42.2732 41.8799 42.4 41.9197C44.7098 42.6417 45.8821 42.7612 46.5122 42.8246C46.9553 42.8693 47.2748 42.9018 47.5065 43.1937C47.7325 43.4783 47.6911 43.7978 47.648 44.136C47.5976 44.5303 47.5122 45.1896 47.6187 46.3978C47.6341 46.5726 47.5756 46.7449 47.4569 46.8742C47.3374 47.0043 47.1707 47.0774 46.9951 47.0774ZM12.4537 45.8287H46.3293C46.2935 44.9742 46.3528 44.4173 46.3967 44.0693C46.3927 44.0693 46.3894 44.0685 46.3854 44.0685C45.7764 44.0067 44.5276 43.8799 42.2211 43.1734C35.6528 45.3783 31.6642 44.536 27.0528 43.5612C23.4471 42.7994 19.3715 41.9376 13.287 42.5278C13.0398 43.5726 12.7089 44.9262 12.4537 45.8287Z" fill="white"/>
<path d="M44.7414 43.746C44.3967 43.746 44.117 43.4663 44.117 43.1216V14.8508H28.3308V42.5964C28.3308 42.9411 28.0511 43.2207 27.7064 43.2207C27.3617 43.2207 27.082 42.9411 27.082 42.5964V14.2264C27.082 13.8817 27.3617 13.6021 27.7064 13.6021H44.7406C45.0853 13.6021 45.365 13.8817 45.365 14.2264V43.1216C45.3658 43.4671 45.0861 43.746 44.7414 43.746Z" fill="white"/>
<path d="M13.5787 41.5042C13.234 41.5042 12.9543 41.2246 12.9543 40.8798V22.8815C12.9543 22.5368 13.234 22.2571 13.5787 22.2571H27.7064C28.0511 22.2571 28.3308 22.5368 28.3308 22.8815C28.3308 23.2262 28.0511 23.5059 27.7064 23.5059H14.2031V40.8798C14.2031 41.2254 13.9235 41.5042 13.5787 41.5042Z" fill="white"/>
<path d="M32.8268 44.4986C32.4813 44.4986 32.2024 44.2181 32.2024 43.8734L32.2121 33.5035C32.2121 33.1587 32.4918 32.8799 32.8365 32.8799H39.6203C39.965 32.8799 40.2447 33.1596 40.2447 33.5043V43.2799C40.2447 43.6246 39.965 43.9043 39.6203 43.9043C39.2756 43.9043 38.9959 43.6246 38.9959 43.2799V34.1287H33.4601L33.4512 43.875C33.4512 44.2197 33.1715 44.4986 32.8268 44.4986Z" fill="white"/>
<path d="M23.1155 40.4514C22.7708 40.4514 22.4911 40.1717 22.4911 39.827V32.6213H18.2358V37.2539C18.2358 37.5986 17.9562 37.8782 17.6115 37.8782C17.2667 37.8782 16.9871 37.5986 16.9871 37.2539V31.9969C16.9871 31.6522 17.2667 31.3726 17.6115 31.3726H23.1155C23.4602 31.3726 23.7399 31.6522 23.7399 31.9969V39.827C23.7399 40.1717 23.4602 40.4514 23.1155 40.4514Z" fill="white"/>
<path d="M20.3625 29.2798C18.9845 29.2798 17.8625 28.1586 17.8625 26.7798C17.8625 25.4017 18.9837 24.2798 20.3625 24.2798C21.7406 24.2798 22.8625 25.4009 22.8625 26.7798C22.8625 28.1578 21.7414 29.2798 20.3625 29.2798ZM20.3625 25.5286C19.6731 25.5286 19.1113 26.0895 19.1113 26.7798C19.1113 27.4692 19.6723 28.031 20.3625 28.031C21.052 28.031 21.6138 27.47 21.6138 26.7798C21.6138 26.0904 21.0528 25.5286 20.3625 25.5286Z" fill="white"/>
<path d="M27.1432 43.566C27.0082 43.566 26.8724 43.5221 26.7586 43.4327L26.6448 43.3432C21.8074 39.5481 19.3789 37.644 17.7635 37.8619C16.509 38.0318 15.3651 39.5083 13.2838 42.3221C13.0789 42.5993 12.6879 42.6579 12.4106 42.453C12.1334 42.2481 12.0749 41.857 12.2798 41.5798C14.3757 38.7457 15.7602 36.8733 17.596 36.6245C19.7334 36.3351 22.1415 38.2237 27.4147 42.3603L27.5285 42.4497C27.8001 42.6627 27.8472 43.0554 27.6342 43.3262C27.5123 43.4839 27.3285 43.566 27.1432 43.566Z" fill="white"/>
<path d="M10.9772 21.5595C10.787 21.5595 10.6049 21.4726 10.4853 21.3205C10.4293 21.249 9.94551 20.5913 10.1114 19.4148C10.2073 18.7303 10.4984 18.0148 10.9805 17.2717C10.8049 17.3701 10.6691 17.4555 10.6049 17.5156C10.4577 17.7156 10.2049 17.8108 9.96015 17.7539C9.70242 17.6937 9.51137 17.4782 9.48128 17.2156C9.31055 15.7116 9.6195 14.5433 10.3992 13.7449C11.1902 12.9343 12.3138 12.662 13.3406 12.5969C13.2455 12.4856 13.1902 12.3425 13.1902 12.1904V12.1547L12.7748 12.2726C12.6488 12.3083 12.5154 12.3034 12.3919 12.2595C11.4553 11.9213 10.6902 11.814 10.1179 11.9384C9.85933 11.9945 9.59429 11.8823 9.45446 11.6587C9.31462 11.4343 9.33169 11.1465 9.49592 10.94C9.55933 10.8604 11.0797 8.98638 13.3723 9.04491C14.8967 9.08556 16.3496 9.96117 17.7 11.6506C19.0496 9.96117 20.5032 9.08556 22.0276 9.04491C24.3195 8.98394 25.8406 10.8595 25.904 10.94C26.0683 11.1465 26.0854 11.4343 25.9455 11.6587C25.8057 11.8831 25.5406 11.9953 25.2821 11.9384C24.7097 11.8132 23.9447 11.9213 23.0081 12.2595C22.8853 12.3043 22.7512 12.3083 22.6252 12.2726L22.2097 12.1547V12.1896C22.2097 12.3417 22.1545 12.4847 22.0593 12.5961C23.0862 12.662 24.2097 12.9335 25.0008 13.7441C25.7805 14.5425 26.0886 15.71 25.9187 17.2148C25.8886 17.4774 25.6975 17.6929 25.4398 17.753C25.1959 17.81 24.9423 17.7148 24.7951 17.5148C24.7309 17.4547 24.5951 17.3693 24.4195 17.2709C24.9016 18.014 25.1919 18.7295 25.2878 19.414C25.4528 20.5904 24.9691 21.2482 24.9138 21.3197C24.7715 21.5018 24.539 21.5904 24.3114 21.549C24.0837 21.5083 23.8975 21.3441 23.8268 21.1238C23.6504 20.5693 23.1788 19.9644 22.4252 19.3262L21.3992 18.5571C21.1349 18.3791 20.8894 18.2124 20.6593 18.0563C19.1236 17.0132 18.3488 16.4872 17.7073 16.4872C17.704 16.4872 17.7008 16.4872 17.6967 16.4872C17.0471 16.4929 16.1959 17.0693 14.6512 18.1165C14.4463 18.2555 14.2293 18.4026 13.9984 18.5579L12.9723 19.327C12.2195 19.9652 11.748 20.5693 11.5707 21.1246C11.5008 21.3449 11.3138 21.5083 11.0862 21.5498C11.0512 21.5563 11.0138 21.5595 10.9772 21.5595ZM17.7106 15.2392C18.7341 15.2392 19.6171 15.8384 21.3626 17.0246C21.5951 17.1823 21.8439 17.3514 22.1114 17.5311C22.1203 17.5368 22.1284 17.5433 22.1374 17.549L23.191 18.3384C23.2008 18.3457 23.2097 18.353 23.2195 18.3612C23.4707 18.5726 23.6975 18.7847 23.9 18.9969C23.6244 18.2124 22.9471 17.1335 21.4203 15.7595C21.178 15.5417 21.1439 15.175 21.3414 14.9165C21.539 14.6579 21.9016 14.5945 22.1756 14.7693C22.3146 14.8587 22.7797 15.0766 23.2301 15.288C23.8488 15.5782 24.326 15.8083 24.6951 15.9994C24.6317 15.4132 24.4358 14.9498 24.1097 14.6156C23.1545 13.6376 21.1902 13.8116 20.2463 13.8953C20.0504 13.9124 19.8951 13.9262 19.7699 13.9295C19.2024 13.9433 19.0309 13.6295 18.978 13.4417C18.8268 12.8986 19.3244 12.6335 19.7244 12.4205C19.9919 12.2782 20.3667 12.0913 20.9634 11.7986V11.327C20.9634 11.1311 21.0553 10.9465 21.2114 10.8287C21.3675 10.7108 21.5699 10.6726 21.7585 10.7262L22.7788 11.0165C23.1179 10.9018 23.4431 10.8132 23.752 10.7506C23.2862 10.4847 22.7057 10.2726 22.0528 10.2921C20.7886 10.3303 19.5293 11.2124 18.3089 12.9156C18.2878 12.953 18.2675 12.9888 18.248 13.0246C18.1382 13.2238 17.9284 13.3474 17.7016 13.3474C17.4748 13.3474 17.265 13.2238 17.1553 13.0254C17.1349 12.9896 17.1146 12.953 17.0943 12.9156C15.874 11.2124 14.6146 10.3303 13.3504 10.2921C12.6975 10.2734 12.1171 10.4847 11.6512 10.7506C11.961 10.8132 12.2853 10.9018 12.6244 11.0165L13.6447 10.7262C13.8333 10.6726 14.0358 10.7108 14.1919 10.8287C14.348 10.9465 14.4398 11.1311 14.4398 11.327V11.7986C15.0366 12.0913 15.4114 12.2782 15.6788 12.4205C16.0788 12.6335 16.5764 12.8986 16.426 13.4417C16.3732 13.6303 16.2 13.9441 15.6341 13.9295C15.5089 13.9262 15.3545 13.9124 15.1577 13.8953C14.2138 13.8116 12.2488 13.6376 11.2943 14.6156C10.9683 14.9498 10.7723 15.4132 10.7089 15.9994C11.0772 15.8075 11.5553 15.5782 12.174 15.288C12.6244 15.0766 13.0894 14.8579 13.2284 14.7693C13.5024 14.5937 13.865 14.6571 14.0626 14.9165C14.2601 15.175 14.2252 15.5417 13.9837 15.7595C12.4585 17.1311 11.7813 18.2108 11.5049 18.9953C11.7073 18.7839 11.9341 18.5717 12.1845 18.3604C12.1935 18.3522 12.2032 18.3449 12.213 18.3376L13.2667 17.5482C13.2748 17.5417 13.2837 17.536 13.2927 17.5303C13.5276 17.3726 13.748 17.223 13.9553 17.0823C15.7577 15.8604 16.6626 15.2474 17.6902 15.2384C17.6951 15.2392 17.7024 15.2392 17.7106 15.2392ZM10.6276 17.4823C10.6268 17.4823 10.6268 17.4823 10.6276 17.4823C10.6268 17.4823 10.6268 17.4831 10.6276 17.4823Z" fill="white"/>
<path d="M16.0528 23.506C16.0081 23.506 15.9626 23.5011 15.9171 23.4913C15.5805 23.4165 15.3683 23.0832 15.4423 22.7466C15.8894 20.7279 15.5447 19.1279 15.1789 17.4336C15.135 17.2303 15.0911 17.0279 15.0488 16.8238C14.9789 16.4864 15.1951 16.1556 15.5325 16.0856C15.8699 16.0149 16.2008 16.232 16.2707 16.5694C16.3122 16.7702 16.3553 16.9702 16.3984 17.1702C16.7756 18.9214 17.1667 20.7312 16.6602 23.0165C16.5976 23.3076 16.339 23.506 16.0528 23.506Z" fill="white"/>
<path d="M20.1153 23.506C20.0698 23.506 20.0235 23.5011 19.9771 23.4906C19.6405 23.415 19.43 23.0808 19.5056 22.7442C19.969 20.6914 19.621 19.1068 19.2527 17.4296C19.208 17.2255 19.1633 17.0207 19.1194 16.8158C19.0478 16.4784 19.2641 16.1467 19.6015 16.0759C19.9389 16.0052 20.2706 16.2207 20.3413 16.5581C20.3844 16.7605 20.4283 16.9613 20.4722 17.1629C20.8535 18.8995 21.2478 20.6963 20.7235 23.0198C20.6584 23.3093 20.4007 23.506 20.1153 23.506Z" fill="white"/>
<path d="M29.609 14.8505C29.6082 14.8505 29.6082 14.8505 29.6074 14.8505C29.2627 14.8497 28.9838 14.5692 28.9846 14.2245L28.9911 11.5188C28.9919 11.1749 29.2716 10.896 29.6155 10.896H42.8383C43.183 10.896 43.4627 11.1757 43.4627 11.5204V14.2261C43.4627 14.5708 43.183 14.8505 42.8383 14.8505C42.4936 14.8505 42.2139 14.5708 42.2139 14.2261V12.1448H30.2383L30.2334 14.2277C30.2326 14.5716 29.9529 14.8505 29.609 14.8505Z" fill="white"/>
<path d="M40.3055 14.8505C39.9608 14.8505 39.6812 14.5708 39.6812 14.2261V11.5204C39.6812 11.1757 39.9608 10.896 40.3055 10.896C40.6503 10.896 40.9299 11.1757 40.9299 11.5204V14.2261C40.9299 14.5708 40.6503 14.8505 40.3055 14.8505Z" fill="white"/>
<path d="M37.5846 14.8505C37.2399 14.8505 36.9602 14.5708 36.9602 14.2261V11.5204C36.9602 11.1757 37.2399 10.896 37.5846 10.896C37.9293 10.896 38.209 11.1757 38.209 11.5204V14.2261C38.209 14.5708 37.9293 14.8505 37.5846 14.8505Z" fill="white"/>
<path d="M34.8634 14.8505C34.5187 14.8505 34.239 14.5708 34.239 14.2261V11.5204C34.239 11.1757 34.5187 10.896 34.8634 10.896C35.2081 10.896 35.4878 11.1757 35.4878 11.5204V14.2261C35.4878 14.5708 35.2081 14.8505 34.8634 14.8505Z" fill="white"/>
<path d="M32.1422 14.8505C31.7975 14.8505 31.5178 14.5708 31.5178 14.2261V11.5204C31.5178 11.1757 31.7975 10.896 32.1422 10.896C32.4869 10.896 32.7666 11.1757 32.7666 11.5204V14.2261C32.7666 14.5708 32.4869 14.8505 32.1422 14.8505Z" fill="white"/>
<path d="M42.3236 18.4573C41.9789 18.4573 41.6992 18.1777 41.6992 17.8329V16.389C41.6992 16.0443 41.9789 15.7646 42.3236 15.7646C42.6683 15.7646 42.948 16.0443 42.948 16.389V17.8329C42.948 18.1777 42.6683 18.4573 42.3236 18.4573Z" fill="white"/>
<path d="M40.2902 18.4573C39.9454 18.4573 39.6658 18.1777 39.6658 17.8329V16.389C39.6658 16.0443 39.9454 15.7646 40.2902 15.7646C40.6349 15.7646 40.9146 16.0443 40.9146 16.389V17.8329C40.9146 18.1777 40.6349 18.4573 40.2902 18.4573Z" fill="white"/>
<path d="M38.257 18.4573C37.9122 18.4573 37.6326 18.1777 37.6326 17.8329V16.389C37.6326 16.0443 37.9122 15.7646 38.257 15.7646C38.6017 15.7646 38.8814 16.0443 38.8814 16.389V17.8329C38.8814 18.1777 38.6017 18.4573 38.257 18.4573Z" fill="white"/>
<path d="M36.2235 18.4573C35.8788 18.4573 35.5991 18.1777 35.5991 17.8329V16.389C35.5991 16.0443 35.8788 15.7646 36.2235 15.7646C36.5682 15.7646 36.8479 16.0443 36.8479 16.389V17.8329C36.8479 18.1777 36.569 18.4573 36.2235 18.4573Z" fill="white"/>
<path d="M34.191 18.4573C33.8463 18.4573 33.5667 18.1777 33.5667 17.8329V16.389C33.5667 16.0443 33.8463 15.7646 34.191 15.7646C34.5358 15.7646 34.8154 16.0443 34.8154 16.389V17.8329C34.8154 18.1777 34.5358 18.4573 34.191 18.4573Z" fill="white"/>
<path d="M32.1578 18.4573C31.8131 18.4573 31.5334 18.1777 31.5334 17.8329V16.389C31.5334 16.0443 31.8131 15.7646 32.1578 15.7646C32.5026 15.7646 32.7822 16.0443 32.7822 16.389V17.8329C32.7822 18.1777 32.5026 18.4573 32.1578 18.4573Z" fill="white"/>
<path d="M30.1244 18.4573C29.7797 18.4573 29.5 18.1777 29.5 17.8329V16.389C29.5 16.0443 29.7797 15.7646 30.1244 15.7646C30.4691 15.7646 30.7488 16.0443 30.7488 16.389V17.8329C30.7488 18.1777 30.4691 18.4573 30.1244 18.4573Z" fill="white"/>
<path d="M42.3236 22.2042C41.9789 22.2042 41.6992 21.9245 41.6992 21.5798V20.1359C41.6992 19.7912 41.9789 19.5115 42.3236 19.5115C42.6683 19.5115 42.948 19.7912 42.948 20.1359V21.5798C42.948 21.9253 42.6683 22.2042 42.3236 22.2042Z" fill="white"/>
<path d="M40.2902 22.2042C39.9454 22.2042 39.6658 21.9245 39.6658 21.5798V20.1359C39.6658 19.7912 39.9454 19.5115 40.2902 19.5115C40.6349 19.5115 40.9146 19.7912 40.9146 20.1359V21.5798C40.9146 21.9253 40.6349 22.2042 40.2902 22.2042Z" fill="white"/>
<path d="M38.257 22.2042C37.9122 22.2042 37.6326 21.9245 37.6326 21.5798V20.1359C37.6326 19.7912 37.9122 19.5115 38.257 19.5115C38.6017 19.5115 38.8814 19.7912 38.8814 20.1359V21.5798C38.8814 21.9253 38.6017 22.2042 38.257 22.2042Z" fill="white"/>
<path d="M36.2235 22.2042C35.8788 22.2042 35.5991 21.9245 35.5991 21.5798V20.1359C35.5991 19.7912 35.8788 19.5115 36.2235 19.5115C36.5682 19.5115 36.8479 19.7912 36.8479 20.1359V21.5798C36.8479 21.9253 36.569 22.2042 36.2235 22.2042Z" fill="white"/>
<path d="M34.191 22.2042C33.8463 22.2042 33.5667 21.9245 33.5667 21.5798V20.1359C33.5667 19.7912 33.8463 19.5115 34.191 19.5115C34.5358 19.5115 34.8154 19.7912 34.8154 20.1359V21.5798C34.8154 21.9253 34.5358 22.2042 34.191 22.2042Z" fill="white"/>
<path d="M32.1578 22.2042C31.8131 22.2042 31.5334 21.9245 31.5334 21.5798V20.1359C31.5334 19.7912 31.8131 19.5115 32.1578 19.5115C32.5026 19.5115 32.7822 19.7912 32.7822 20.1359V21.5798C32.7822 21.9253 32.5026 22.2042 32.1578 22.2042Z" fill="white"/>
<path d="M30.1244 22.2042C29.7797 22.2042 29.5 21.9245 29.5 21.5798V20.1359C29.5 19.7912 29.7797 19.5115 30.1244 19.5115C30.4691 19.5115 30.7488 19.7912 30.7488 20.1359V21.5798C30.7488 21.9253 30.4691 22.2042 30.1244 22.2042Z" fill="white"/>
<path d="M42.3236 25.9522C41.9789 25.9522 41.6992 25.6725 41.6992 25.3278V23.8839C41.6992 23.5392 41.9789 23.2595 42.3236 23.2595C42.6683 23.2595 42.948 23.5392 42.948 23.8839V25.3278C42.948 25.6725 42.6683 25.9522 42.3236 25.9522Z" fill="white"/>
<path d="M40.2902 25.9522C39.9454 25.9522 39.6658 25.6725 39.6658 25.3278V23.8839C39.6658 23.5392 39.9454 23.2595 40.2902 23.2595C40.6349 23.2595 40.9146 23.5392 40.9146 23.8839V25.3278C40.9146 25.6725 40.6349 25.9522 40.2902 25.9522Z" fill="white"/>
<path d="M38.257 25.9522C37.9122 25.9522 37.6326 25.6725 37.6326 25.3278V23.8839C37.6326 23.5392 37.9122 23.2595 38.257 23.2595C38.6017 23.2595 38.8814 23.5392 38.8814 23.8839V25.3278C38.8814 25.6725 38.6017 25.9522 38.257 25.9522Z" fill="white"/>
<path d="M36.2235 25.9522C35.8788 25.9522 35.5991 25.6725 35.5991 25.3278V23.8839C35.5991 23.5392 35.8788 23.2595 36.2235 23.2595C36.5682 23.2595 36.8479 23.5392 36.8479 23.8839V25.3278C36.8479 25.6725 36.569 25.9522 36.2235 25.9522Z" fill="white"/>
<path d="M34.191 25.9522C33.8463 25.9522 33.5667 25.6725 33.5667 25.3278V23.8839C33.5667 23.5392 33.8463 23.2595 34.191 23.2595C34.5358 23.2595 34.8154 23.5392 34.8154 23.8839V25.3278C34.8154 25.6725 34.5358 25.9522 34.191 25.9522Z" fill="white"/>
<path d="M32.1578 25.9522C31.8131 25.9522 31.5334 25.6725 31.5334 25.3278V23.8839C31.5334 23.5392 31.8131 23.2595 32.1578 23.2595C32.5026 23.2595 32.7822 23.5392 32.7822 23.8839V25.3278C32.7822 25.6725 32.5026 25.9522 32.1578 25.9522Z" fill="white"/>
<path d="M30.1244 25.9522C29.7797 25.9522 29.5 25.6725 29.5 25.3278V23.8839C29.5 23.5392 29.7797 23.2595 30.1244 23.2595C30.4691 23.2595 30.7488 23.5392 30.7488 23.8839V25.3278C30.7488 25.6725 30.4691 25.9522 30.1244 25.9522Z" fill="white"/>
<path d="M42.3236 29.6993C41.9789 29.6993 41.6992 29.4196 41.6992 29.0749V27.631C41.6992 27.2863 41.9789 27.0066 42.3236 27.0066C42.6683 27.0066 42.948 27.2863 42.948 27.631V29.0749C42.948 29.4196 42.6683 29.6993 42.3236 29.6993Z" fill="white"/>
<path d="M40.2902 29.6993C39.9454 29.6993 39.6658 29.4196 39.6658 29.0749V27.631C39.6658 27.2863 39.9454 27.0066 40.2902 27.0066C40.6349 27.0066 40.9146 27.2863 40.9146 27.631V29.0749C40.9146 29.4196 40.6349 29.6993 40.2902 29.6993Z" fill="white"/>
<path d="M38.257 29.6993C37.9122 29.6993 37.6326 29.4196 37.6326 29.0749V27.631C37.6326 27.2863 37.9122 27.0066 38.257 27.0066C38.6017 27.0066 38.8814 27.2863 38.8814 27.631V29.0749C38.8814 29.4196 38.6017 29.6993 38.257 29.6993Z" fill="white"/>
<path d="M36.2235 29.6993C35.8788 29.6993 35.5991 29.4196 35.5991 29.0749V27.631C35.5991 27.2863 35.8788 27.0066 36.2235 27.0066C36.5682 27.0066 36.8479 27.2863 36.8479 27.631V29.0749C36.8479 29.4196 36.569 29.6993 36.2235 29.6993Z" fill="white"/>
<path d="M34.191 29.6993C33.8463 29.6993 33.5667 29.4196 33.5667 29.0749V27.631C33.5667 27.2863 33.8463 27.0066 34.191 27.0066C34.5358 27.0066 34.8154 27.2863 34.8154 27.631V29.0749C34.8154 29.4196 34.5358 29.6993 34.191 29.6993Z" fill="white"/>
<path d="M32.1578 29.6993C31.8131 29.6993 31.5334 29.4196 31.5334 29.0749V27.631C31.5334 27.2863 31.8131 27.0066 32.1578 27.0066C32.5026 27.0066 32.7822 27.2863 32.7822 27.631V29.0749C32.7822 29.4196 32.5026 29.6993 32.1578 29.6993Z" fill="white"/>
<path d="M30.1244 29.6993C29.7797 29.6993 29.5 29.4196 29.5 29.0749V27.631C29.5 27.2863 29.7797 27.0066 30.1244 27.0066C30.4691 27.0066 30.7488 27.2863 30.7488 27.631V29.0749C30.7488 29.4196 30.4691 29.6993 30.1244 29.6993Z" fill="white"/>
</svg>
