<svg width="320" height="319" viewBox="0 0 320 319" fill="none" xmlns="http://www.w3.org/2000/svg">
<g opacity="0.05">
<path d="M46.8264 11.0783C46.8264 11.0783 47.98 36.8941 57.826 50.7533C67.6719 64.6124 96.703 96.2017 97.9927 97.9192C99.2824 99.6367 77.6951 55.1349 65.1502 36.3628C52.6053 17.5906 46.8264 11.0783 46.8264 11.0783Z" fill="#1B1C21"/>
<path d="M98.0128 97.7293L98.0122 97.8855C79.14 71.1103 46.8264 11.0783 46.8264 11.0783C46.8264 11.0783 57.4287 17.2552 69.9771 36.0406C81.8448 53.6613 96.8653 94.5842 98.0128 97.7293Z" fill="#1B1C21"/>
<path d="M46.8526 70.3615C64.227 80.0907 96.0325 104.492 105.244 112.013C105.271 112.138 105.309 112.261 105.356 112.38C105.403 112.583 105.463 112.782 105.537 112.977L105.719 113.339C97.2004 109.539 64.9025 95.3649 50.6585 88.058C34.6097 79.8099 17.2677 55.5172 17.2677 55.5172C17.2677 55.5172 25.882 58.6679 46.8526 70.3615Z" fill="#1B1C21"/>
<path d="M105.332 112.422C105.379 112.625 105.439 112.824 105.513 113.019L105.583 113.149C74.2644 96.2524 17.2677 55.5172 17.2677 55.5172C17.2677 55.5172 28.4783 58.2772 49.4246 70.0128C66.8074 79.7468 98.0925 104.217 107.283 111.715C107.326 111.874 105.287 112.307 105.332 112.422Z" fill="#1B1C21"/>
<path d="M106.595 112.19C105.981 111.22 105.338 110.279 104.664 109.375C101.986 94.6447 96.6403 65.5141 94.8146 50.8955C92.3514 31.3574 102.178 0.0047744 102.178 0.0047744C102.178 0.0047744 104.581 9.63365 107.072 35.7858C109.033 56.3871 107.675 97.2251 106.822 112.455L106.595 112.19Z" fill="#1B1C21"/>
<path d="M106.595 112.19C106.235 111.613 105.857 111.048 105.473 110.491C101.707 70.5303 102.17 8.23218e-05 102.17 8.23218e-05C102.17 8.23218e-05 109.291 9.95989 111.782 36.112C113.738 56.7217 108.942 107.428 106.839 112.465L106.595 112.19Z" fill="#1B1C21"/>
<path d="M125.773 142.619C125.224 141.497 124.652 140.396 124.036 139.313C122.981 123.708 120.896 92.8814 120.742 77.5951C120.532 57.177 135.048 27.6375 135.048 27.6375C135.048 27.6375 136.431 37.9862 135.843 65.1336C135.384 86.5182 128.8 127.672 125.987 142.888L125.773 142.619Z" fill="#1B1C21"/>
<path d="M125.773 142.619C125.453 141.954 125.119 141.291 124.768 140.641C125.782 99.1579 135.056 27.6422 135.056 27.6422C135.056 27.6422 141.128 38.819 140.531 65.9616C140.059 87.3497 127.95 143.071 125.987 142.888L125.773 142.619Z" fill="#1B1C21"/>
<path d="M138.017 162.862C139.2 146.905 138.398 114.515 140.435 99.0743C143.208 78.4664 162.26 51.937 162.26 51.937C162.26 51.937 162.163 62.6611 157.597 89.8605C154.013 111.274 147.14 152.037 142.01 166.811C142.018 166.681 141.476 164.579 138.017 162.862Z" fill="#1B1C21"/>
<path d="M139.65 159.723C139.413 158.971 162.289 51.9647 162.289 51.9647C162.289 51.9647 165.877 65.1184 161.35 92.3288C157.765 113.743 148.007 148.367 142.872 163.071C142.866 162.966 139.7 159.83 139.65 159.723Z" fill="#1B1C21"/>
<path d="M156.464 182.916C156.109 181.594 155.789 180.212 155.4 178.948C157.988 161.644 163.247 127.665 166.784 111.021C171.513 88.7691 194.335 60.2227 194.335 60.2227C194.335 60.2227 193.327 71.8076 186.106 101.165C180.419 124.283 163.343 167.419 156.58 183.297L156.464 182.916Z" fill="#1B1C21"/>
<path d="M156.464 182.916C156.269 182.111 156.07 181.313 155.857 180.52C166.972 135.72 194.335 60.2227 194.335 60.2227C194.335 60.2227 193.327 71.8076 186.106 101.165C180.419 124.283 163.343 167.419 156.58 183.297L156.464 182.916Z" fill="#1B1C21"/>
<path d="M178.367 204.81C178.077 203.782 177.764 202.774 177.411 201.798C178.848 186.313 178.278 155.186 180.434 139.869C183.312 119.389 203.377 87.6187 203.377 87.6187C203.377 87.6187 202.994 97.7529 198.426 125.13C194.833 146.695 183.141 189.239 178.484 205.091L178.367 204.81Z" fill="#1B1C21"/>
<path d="M178.367 204.81C178.195 204.197 178.014 203.601 177.82 203.007C184.849 161.217 203.377 87.6187 203.377 87.6187C203.377 87.6187 205.82 100.626 201.252 128.003C197.644 149.593 183.145 189.252 178.484 205.091L178.367 204.81Z" fill="#1B1C21"/>
<path d="M194.402 229.042C194.175 227.904 193.913 226.791 193.617 225.714C196.375 209.549 199.546 175.293 203.067 159.433C207.776 138.221 230.479 108.913 230.479 108.913C230.479 108.913 229.258 119.57 222.199 147.834C216.641 170.089 200.749 213.304 194.492 229.351L194.402 229.042Z" fill="#1B1C21"/>
<path d="M194.402 229.042C194.269 228.361 194.076 227.669 193.958 227.041C204.807 183.922 230.483 108.905 230.483 108.905C230.483 108.905 231.434 122.134 224.376 150.377C218.818 172.632 200.748 213.304 194.516 229.309L194.402 229.042Z" fill="#1B1C21"/>
<path d="M208.738 239.947C208.666 238.619 208.554 237.302 208.411 236C213.669 219.959 224.101 188.352 230.128 172.955C238.168 152.425 264.05 128.049 264.05 128.049C264.05 128.049 261.214 138.926 249.693 165.912C240.616 187.174 217.677 226.052 208.798 240.328L208.738 239.947Z" fill="#1B1C21"/>
<path d="M208.738 239.947C208.69 239.159 208.642 238.371 208.557 237.606C226.237 196.429 264.04 128.066 264.04 128.066C264.04 128.066 261.204 138.943 249.683 165.928C240.601 187.199 217.662 226.078 208.793 240.336L208.738 239.947Z" fill="#1B1C21"/>
<path d="M225.143 250.134C225.15 249.019 225.131 247.89 225.066 246.801C230.92 232.613 236.047 203.938 242.542 190.287C251.254 172.001 283.366 149.445 283.366 149.445C283.366 149.445 280.09 158.993 267.734 183.104C258.021 202.098 234.31 237.433 225.177 250.444L225.143 250.134Z" fill="#1B1C21"/>
<path d="M225.144 250.134C225.149 249.466 225.141 248.802 225.162 248.165C244.084 211.362 283.4 149.464 283.4 149.464C283.4 149.464 283.294 162.431 270.939 186.542C261.217 205.531 234.322 237.451 225.194 250.454L225.144 250.134Z" fill="#1B1C21"/>
<path d="M149.821 318.171C149.821 318.171 177.88 316.714 194.12 308.478C213.172 298.761 231.313 287.356 248.327 274.4C250.3 273.191 200.317 290.036 178.867 301.292C157.417 312.548 149.821 318.171 149.821 318.171Z" fill="#1B1C21"/>
<path d="M248.139 274.358L248.302 274.385C217.624 291.631 149.821 318.171 149.821 318.171C149.821 318.171 158.267 305.323 179.713 294.054C199.927 283.448 244.622 275.123 248.139 274.358Z" fill="#1B1C21"/>
<path d="M320.007 193.245C320.007 193.245 294.804 207.109 283.004 221.834C269.192 239.148 256.849 257.585 246.104 276.952C244.749 278.932 284.277 241.322 299.726 221.536C315.175 201.749 320.007 193.245 320.007 193.245Z" fill="#1B1C21"/>
<path d="M246.263 276.91L246.105 276.953C267.772 247.617 320.003 193.254 320.003 193.254C320.003 193.254 317.085 208.69 301.626 228.493C287.098 247.089 249.196 274.678 246.263 276.91Z" fill="#1B1C21"/>
<path d="M63.3659 244.281C63.3659 244.281 98.4219 249.513 125.412 242.53C174.298 229.87 184.274 222.837 186.769 222.041C189.264 221.245 134.356 225.663 107.217 232.517C80.0788 239.37 63.3659 244.281 63.3659 244.281Z" fill="#1B1C21"/>
<path d="M186.585 221.934L186.769 222.041C147.823 233.193 63.3659 244.281 63.3659 244.281C63.3659 244.281 75.3109 237.266 102.424 230.398C128.015 223.881 182.331 221.748 186.585 221.934Z" fill="#1B1C21"/>
<path d="M46.0511 100.763C66.8916 107.394 105.172 124.262 115.725 129.225C115.813 129.503 115.959 129.759 116.153 129.975L120.961 133.792C111.185 131.356 67.5471 118.016 50.5047 113.019C31.4542 107.432 10.8195 90.7213 10.8195 90.7213C10.8195 90.7213 21.1322 92.8285 46.0511 100.763Z" fill="#1B1C21"/>
<path d="M116.118 129.922C78.8605 118.565 10.8701 90.7507 10.8701 90.7507C10.8701 90.7507 22.5944 91.7495 47.5349 99.6853C68.379 106.33 105.189 124.272 115.734 129.23C115.821 129.481 115.951 129.715 116.118 129.922Z" fill="#1B1C21"/>
<path d="M44.1986 123.032C68.9201 128.907 119.079 144.123 134.983 149.794C135.266 150.292 139.326 155.656 139.677 156.093C124.717 153.416 69.8796 140.028 49.5372 135.653C25.6392 130.444 4.70286e-05 113.762 4.70286e-05 113.762C4.70286e-05 113.762 12.9133 115.627 44.1986 123.032Z" fill="#1B1C21"/>
<path d="M129.737 150.533C82.6407 139.657 4.70286e-05 113.762 4.70286e-05 113.762C4.70286e-05 113.762 12.8798 115.607 44.1555 123.029C68.877 128.904 113.067 143.805 128.986 149.451C129.208 149.83 129.459 150.192 129.737 150.533Z" fill="#1B1C21"/>
<path d="M1.71302 138.995C1.71302 138.995 31.1514 155.992 55.5007 161.271C104.257 171.886 149.945 170.073 153.1 170.418C156.256 170.764 79.8038 149.974 47.3575 144.85C14.9112 139.727 1.71302 138.995 1.71302 138.995Z" fill="#1B1C21"/>
<path d="M142.338 167.638L142.48 167.72C94.8548 161.113 1.73241 138.962 1.73241 138.962C1.73241 138.962 18.1454 138.541 50.582 143.682C81.1567 148.541 138.197 166.075 142.338 167.638Z" fill="#1B1C21"/>
<path d="M70.4832 180.433C92.5161 179.343 136.914 181.023 161.794 182.304C162.835 183.911 160.927 184.174 162.159 185.545C161.457 186.627 111.899 191.674 80.6366 191.629C52.2335 191.647 18.5493 184.522 18.5493 184.522C18.5493 184.522 33.3946 182.246 70.4832 180.433Z" fill="#1B1C21"/>
<path d="M155.64 184.945C98.7716 186.734 18.5493 184.522 18.5493 184.522C18.5493 184.522 33.38 182.271 70.4832 180.433C92.5161 179.343 128.535 180.602 153.412 181.87C154.097 182.935 154.841 183.962 155.64 184.945Z" fill="#1B1C21"/>
<path d="M89.3599 209.872C111.728 206.516 148.669 203.991 174.241 202.64C175.492 204.093 176.862 205.438 178.338 206.661C154.868 211.596 120.211 218.727 101.933 221.817C73.3795 226.724 36.8236 219.228 36.8236 219.228C36.8236 219.228 51.6716 215.533 89.3599 209.872Z" fill="#1B1C21"/>
<path d="M176.895 205.403C118.985 213.065 36.7992 219.27 36.7992 219.27C36.7992 219.27 53.6112 211.263 91.2947 205.611C113.676 202.251 175.502 201.792 174.241 202.64C175.071 203.612 175.958 204.534 176.895 205.403Z" fill="#1B1C21"/>
<path d="M133.502 259.759C150.558 252.105 179.292 241.867 199.199 235.066C200.459 235.938 201.789 236.706 203.174 237.361C185.579 246.492 170.175 260.098 146.299 269.048C123.974 277.405 93.7342 278.957 93.7342 278.957C93.7342 278.957 104.764 272.656 133.502 259.759Z" fill="#1B1C21"/>
<path d="M201.873 236.71C157.55 255.683 93.7489 278.932 93.7489 278.932C93.7489 278.932 103.322 266.824 132.051 253.944C149.073 246.271 179.287 241.875 199.236 235.098C200.086 235.682 200.966 236.22 201.873 236.71Z" fill="#1B1C21"/>
<path d="M167.626 275.613C182.765 267.367 213.456 252.288 219.129 250.016C220.22 250.927 221.395 251.732 222.637 252.422C206.98 262.225 195.987 277.897 176.576 286.338C156.436 295.13 125.533 297.271 125.533 297.271C125.533 297.271 142.127 289.486 167.626 275.613Z" fill="#1B1C21"/>
<path d="M221.437 251.673C182.083 272.151 125.533 297.271 125.533 297.271C125.533 297.271 133.413 287.496 158.912 273.624C174.054 265.391 201.48 257.361 219.17 250.041C219.893 250.629 220.65 251.174 221.437 251.673Z" fill="#1B1C21"/>
<path d="M57.8586 32.1418C57.8586 32.1418 155.59 224.716 270.684 292.407L272.406 288.011C272.406 288.011 157.385 210.063 57.8586 32.1418Z" fill="#1B1C21"/>
</g>
</svg>
