<svg width="194" height="304" viewBox="0 0 194 304" fill="none" xmlns="http://www.w3.org/2000/svg">
<g opacity="0.05">
<path d="M151.087 303.566C151.087 303.566 159.459 282.681 156.64 268.153C153.82 253.624 142.168 218.129 141.751 216.307C141.334 214.485 142.453 257.529 145.652 276.927C148.85 296.325 151.087 303.566 151.087 303.566Z" fill="#1B1C21"/>
<path d="M141.7 216.427L141.765 216.315C147.103 244.338 151.101 303.574 151.101 303.574C151.101 303.574 144.909 294.853 141.729 275.457C138.7 257.159 141.471 219.335 141.7 216.427Z" fill="#1B1C21"/>
<path d="M172.466 256.522C162.197 242.566 145.759 211.763 141.161 202.485C141.185 202.377 141.201 202.268 141.21 202.158C141.239 201.978 141.258 201.783 141.267 201.621C141.275 201.504 141.273 201.388 141.263 201.272C146.622 207.303 167.181 230.157 175.763 241.089C185.484 253.419 190.517 278.909 190.517 278.909C190.517 278.909 184.84 273.348 172.466 256.522Z" fill="#1B1C21"/>
<path d="M141.182 202.141C141.211 201.961 141.23 201.767 141.24 201.604C141.244 201.563 141.243 201.521 141.236 201.48C160.026 226.119 190.545 278.924 190.545 278.924C190.545 278.924 182.653 272.712 170.252 255.869C159.986 241.906 143.978 211.249 139.414 201.962C139.411 201.886 141.178 202.261 141.182 202.141Z" fill="#1B1C21"/>
<path d="M140.091 201.876C140.226 202.89 140.411 203.848 140.615 204.808C137.463 217.479 131.2 242.472 127.401 254.724C122.324 271.102 103.257 292.426 103.257 292.426C103.257 292.426 104.796 283.959 112.235 262.293C118.089 245.25 133.862 213.361 140.008 201.614L140.091 201.876Z" fill="#1B1C21"/>
<path d="M140.091 201.876C140.179 202.47 140.275 203.049 140.382 203.625C128.962 236.643 103.262 292.419 103.262 292.419C103.262 292.419 101.196 281.965 108.632 260.334C114.487 243.291 136.528 204.806 140.028 201.597L140.091 201.876Z" fill="#1B1C21"/>
<path d="M132.857 171.626C132.882 172.717 132.937 173.805 133.036 174.882C128.277 187.646 118.831 212.822 113.457 224.997C106.274 241.263 84.1326 259.455 84.1326 259.455C84.1326 259.455 86.76 250.756 96.9897 229.457C105.047 212.666 125.088 182.409 132.81 171.319L132.857 171.626Z" fill="#1B1C21"/>
<path d="M132.857 171.627C132.872 172.281 132.903 172.925 132.945 173.549C117.248 206.052 84.1407 259.441 84.1407 259.441C84.1407 259.441 83.3518 248.396 93.5855 227.089C101.649 210.303 131.304 170.477 132.818 171.305L132.857 171.627Z" fill="#1B1C21"/>
<path d="M131.246 149.479C124.57 161.706 113.552 187.677 106.362 199.159C96.7478 214.499 72.1068 228.675 72.1068 228.675C72.1068 228.675 76.0516 220.222 89.4176 200.312C99.9639 184.622 120.109 154.753 129.452 144.907C129.469 144.991 129.119 146.876 131.246 149.479Z" fill="#1B1C21"/>
<path d="M130.874 147.449C130.787 148.119 72.1229 228.647 72.1229 228.647C72.1229 228.647 73.9821 216.904 87.3812 196.985C97.9386 181.292 120.485 154.231 129.842 144.393C129.826 144.533 130.858 147.365 130.874 147.449Z" fill="#1B1C21"/>
<path d="M127.605 123.735C127.366 124.926 127.164 126.118 127.002 127.307C118.721 140.029 102.365 165.117 93.5524 177.028C81.804 192.969 53.4347 207.397 53.4347 207.397C53.4347 207.397 58.4032 198.581 74.6868 177.895C87.512 161.612 116.561 133.562 127.665 123.404L127.605 123.735Z" fill="#1B1C21"/>
<path d="M123.655 125.066C123.519 125.773 124.83 126.839 124.712 127.547C99.7843 159.071 53.4303 207.404 53.4303 207.404C53.4303 207.404 58.3988 198.588 74.6825 177.902C87.5158 161.605 123.666 124.95 123.655 125.066Z" fill="#1B1C21"/>
<path d="M115.866 101.774C115.707 102.617 115.594 103.413 115.51 104.206C109.157 114.805 98.8552 137.12 92.0473 147.372C82.9448 161.081 57.7285 177.647 57.7285 177.647C57.7285 177.647 61.4904 170.548 74.1569 152.433C84.1352 138.164 107.092 111.414 115.855 101.534L115.866 101.774Z" fill="#1B1C21"/>
<path d="M115.866 101.774C115.779 102.266 115.695 102.751 115.634 103.23C96.2248 130.868 57.7424 177.655 57.7424 177.655C57.7424 177.655 60.4841 167.656 73.1536 149.552C83.1389 135.288 107.117 111.419 115.848 101.53L115.866 101.774Z" fill="#1B1C21"/>
<path d="M112.508 77.6448C112.279 78.6256 112.086 79.6086 111.934 80.5686C103.932 92.3863 89.1068 118.404 80.5978 129.723C69.229 144.845 40.708 159.925 40.708 159.925C40.708 159.925 45.501 151.915 61.2635 132.051C73.6769 116.4 101.823 87.8567 112.55 77.3787L112.508 77.6448Z" fill="#1B1C21"/>
<path d="M112.508 77.6448C112.375 78.2321 112.246 78.8122 112.139 79.3865C88.0109 109.689 40.6857 159.931 40.6857 159.931C40.6857 159.931 44.6591 149.127 60.4378 129.235C72.8582 113.589 101.809 87.8484 112.532 77.3774L112.508 77.6448Z" fill="#1B1C21"/>
<path d="M105.033 63.8238C104.616 64.9022 104.224 65.9858 103.88 67.0686C93.9341 77.8948 74.287 99.2205 63.983 109.241C50.213 122.64 20.9327 132.65 20.9327 132.65C20.9327 132.65 27.0876 125.052 45.9387 107.795C60.7769 94.199 92.949 71.6286 105.125 63.5026L105.033 63.8238Z" fill="#1B1C21"/>
<path d="M105.033 63.8238C104.784 64.4658 104.546 65.1049 104.322 65.7521C75.5028 92.0918 20.9731 132.646 20.9731 132.646C20.9731 132.646 27.128 125.047 45.9791 107.79C60.8173 94.1941 92.9935 71.6167 105.165 63.4977L105.033 63.8238Z" fill="#1B1C21"/>
<path d="M95.7221 49.8597C95.3021 50.7492 94.9253 51.6449 94.5817 52.5318C84.8423 61.6715 70.469 82.5806 60.396 91.0506C46.9113 102.416 13.3271 108.781 13.3271 108.781C13.3271 108.781 19.362 102.396 37.8228 87.7102C52.3686 76.1438 83.8687 56.6656 95.7905 49.6278L95.7221 49.8597Z" fill="#1B1C21"/>
<path d="M95.7224 49.8597C95.4728 50.3892 95.2413 50.9197 95.0209 51.4474C66.781 73.8182 13.3435 108.753 13.3435 108.753C13.3435 108.753 18.0893 98.5078 36.5622 83.8014C51.101 72.2309 83.9054 56.6024 95.8231 49.5717L95.7224 49.8597Z" fill="#1B1C21"/>
<path d="M179.92 23.0107C179.92 23.0107 157.146 14.0718 141.308 14.751C122.714 15.6089 104.235 18.1308 86.092 22.2864C84.0811 22.5286 129.782 27.1629 150.823 25.9793C171.863 24.7957 179.92 23.0107 179.92 23.0107Z" fill="#1B1C21"/>
<path d="M86.2023 22.387L86.076 22.3141C116.598 19.6814 179.912 23.0244 179.912 23.0244C179.912 23.0244 168.59 30.1744 147.54 31.3901C127.693 32.5146 89.2643 23.079 86.2023 22.387Z" fill="#1B1C21"/>
<path d="M0.0374256 60.8425C0.0374256 60.8425 25.0067 58.9147 39.6596 51.4891C56.8378 42.7251 73.2569 32.5466 88.7467 21.0591C90.5323 19.9756 45.6636 35.5805 26.2965 45.7105C6.92949 55.8405 0.0374256 60.8425 0.0374256 60.8425Z" fill="#1B1C21"/>
<path d="M88.5658 21.048L88.7094 21.0748C60.9745 36.543 0.000104528 60.8583 0.000104528 60.8583C0.000104528 60.8583 7.86935 49.6752 27.2294 39.5412C45.5247 29.9712 85.4785 21.7448 88.5658 21.048Z" fill="#1B1C21"/>
<path d="M221.822 112.7C221.822 112.7 195.97 95.9033 172.027 91.7437C128.683 84.1765 118.287 86.1733 115.986 85.9299C113.685 85.6865 158.856 101.933 182.84 106.248C206.825 110.562 221.822 112.7 221.822 112.7Z" fill="#1B1C21"/>
<path d="M116.147 86.088L116.021 85.9498C150.932 91.1088 221.823 112.7 221.823 112.7C221.823 112.7 209.858 113.978 185.859 109.656C163.288 105.615 119.455 87.7639 116.147 86.088Z" fill="#1B1C21"/>
<path d="M183.994 232.716C169.845 219.953 145.557 192.814 138.983 185.08C139.008 184.829 138.987 184.575 138.919 184.332L136.447 179.556C143.324 185.014 173.127 211.286 184.841 221.38C197.956 232.693 208.258 253.301 208.258 253.301C208.258 253.301 200.897 247.966 183.994 232.716Z" fill="#1B1C21"/>
<path d="M138.922 184.39C164.356 206.774 208.279 253.313 208.279 253.313C208.279 253.313 199.332 248.279 182.429 233.028C168.28 220.265 145.554 192.803 139.004 185.092C139.022 184.855 138.995 184.616 138.922 184.39Z" fill="#1B1C21"/>
<path d="M193.467 215.723C175.983 202.176 141.687 172.066 131.114 161.845C131.067 161.359 129.799 155.632 129.663 155.17C140.569 162.692 179.205 192.997 193.751 203.809C210.87 216.499 225.148 238.954 225.148 238.954C225.148 238.954 215.594 232.848 193.467 215.723Z" fill="#1B1C21"/>
<path d="M135.52 163.126C168.965 188.712 225.148 238.953 225.148 238.953C225.148 238.953 215.572 232.854 193.468 215.723C175.976 202.172 146.296 174.455 135.717 164.259C135.676 163.877 135.61 163.499 135.52 163.126Z" fill="#1B1C21"/>
<path d="M232.869 218.338C232.869 218.338 215.655 194.292 198.265 181.342C163.427 155.381 129.805 142.042 127.426 140.621C125.047 139.201 174.902 181.541 198.814 197.292C222.726 213.043 232.869 218.338 232.869 218.338Z" fill="#1B1C21"/>
<path d="M131.7 145.063L131.651 144.922C167.018 167.277 232.901 218.347 232.901 218.347C232.901 218.347 219.74 212.77 195.856 197.034C173.342 182.202 134.423 147.785 131.7 145.063Z" fill="#1B1C21"/>
<path d="M193.271 160.759C175.412 153.694 140.811 136.347 121.548 126.432C121.302 124.783 122.913 125.265 122.408 123.71C123.362 123.11 164.482 136.944 189.28 148.211C211.797 158.405 235.924 176.198 235.924 176.198C235.924 176.198 223.36 172.649 193.271 160.759Z" fill="#1B1C21"/>
<path d="M127.378 126.541C173.111 145.639 235.925 176.197 235.925 176.197C235.925 176.197 223.344 172.676 193.271 160.759C175.412 153.694 147.309 139.742 128.04 129.786C127.878 128.693 127.658 127.61 127.378 126.541Z" fill="#1B1C21"/>
<path d="M188.905 130.631C169.958 125.239 139.752 113.956 119.019 105.84C118.529 104.233 117.904 102.671 117.151 101.169C137.528 105.721 167.579 112.508 183.205 116.619C207.589 122.997 233.898 142.097 233.898 142.097C233.898 142.097 220.819 139.701 188.905 130.631Z" fill="#1B1C21"/>
<path d="M117.888 102.679C166.557 117.437 233.954 142.082 233.954 142.082C233.954 142.082 217.763 142.417 185.821 133.331C166.87 127.946 117.674 106.064 118.98 105.845C118.677 104.77 118.312 103.713 117.888 102.679Z" fill="#1B1C21"/>
<path d="M171.84 75.1987C155.552 75.1503 129.105 72.9131 110.85 71.1023C110.163 69.9641 109.38 68.8862 108.51 67.8801C125.777 66.9782 142.871 61.7572 165.058 63.2559C185.75 64.6685 210.296 74.3308 210.296 74.3308C210.296 74.3308 199.249 75.3157 171.84 75.1987Z" fill="#1B1C21"/>
<path d="M109.36 68.9039C151.332 69.8043 210.296 74.3308 210.296 74.3308C210.296 74.3308 198.31 80.508 170.942 80.3681C154.654 80.3197 129.126 72.9252 110.871 71.1145C110.407 70.3511 109.903 69.6131 109.36 68.9039Z" fill="#1B1C21"/>
<path d="M150.496 50.3483C135.527 51.4353 105.762 52.353 100.444 52.1172C99.908 51.0022 99.268 49.9405 98.5322 48.9462C114.472 46.8103 128.816 38.3644 147.247 38.6213C166.385 38.9025 191.673 48.366 191.673 48.366C191.673 48.366 175.695 48.525 150.496 50.3483Z" fill="#1B1C21"/>
<path d="M99.2299 49.9577C137.787 47.8944 191.68 48.3524 191.68 48.3524C191.68 48.3524 181.912 53.2653 156.709 55.0956C141.743 56.1756 117.111 52.6753 100.429 52.1096C100.075 51.3679 99.6743 50.6492 99.2299 49.9577Z" fill="#1B1C21"/>
<path d="M149.94 282.883C149.94 282.883 141.727 95.0286 74.7942 1.13273e-05L71.853 2.85802C71.853 2.85802 135.036 106.003 149.94 282.883Z" fill="#1B1C21"/>
</g>
</svg>
