<svg width="289" height="319" viewBox="0 0 289 319" fill="none" xmlns="http://www.w3.org/2000/svg">
<g opacity="0.05">
<path d="M241.345 11.0783C241.345 11.0783 240.192 36.8941 230.346 50.7533C220.5 64.6124 191.469 96.2017 190.179 97.9192C188.889 99.6367 210.477 55.1349 223.022 36.3628C235.567 17.5906 241.345 11.0783 241.345 11.0783Z" fill="#1B1C21"/>
<path d="M190.159 97.7293L190.16 97.8855C209.032 71.1103 241.345 11.0783 241.345 11.0783C241.345 11.0783 230.743 17.2552 218.195 36.0406C206.327 53.6613 191.307 94.5842 190.159 97.7293Z" fill="#1B1C21"/>
<path d="M241.319 70.3615C223.945 80.0907 192.139 104.492 182.928 112.013C182.901 112.138 182.863 112.261 182.816 112.38C182.769 112.583 182.709 112.782 182.635 112.977L182.452 113.339C190.971 109.539 223.269 95.3649 237.513 88.058C253.562 79.8099 270.904 55.5172 270.904 55.5172C270.904 55.5172 262.29 58.6679 241.319 70.3615Z" fill="#1B1C21"/>
<path d="M182.84 112.422C182.793 112.625 182.733 112.824 182.659 113.019L182.589 113.149C213.907 96.2524 270.904 55.5172 270.904 55.5172C270.904 55.5172 259.694 58.2772 238.747 70.0128C221.364 79.7468 190.079 104.217 180.889 111.715C180.846 111.874 182.885 112.307 182.84 112.422Z" fill="#1B1C21"/>
<path d="M181.577 112.19C182.191 111.22 182.833 110.279 183.508 109.375C186.186 94.6447 191.532 65.5141 193.357 50.8955C195.82 31.3574 185.994 0.0047744 185.994 0.0047744C185.994 0.0047744 183.591 9.63365 181.1 35.7858C179.139 56.3871 180.497 97.2251 181.35 112.455L181.577 112.19Z" fill="#1B1C21"/>
<path d="M181.577 112.19C181.937 111.613 182.315 111.048 182.698 110.491C186.465 70.5303 186.002 8.23218e-05 186.002 8.23218e-05C186.002 8.23218e-05 178.881 9.95989 176.39 36.112C174.434 56.7217 179.23 107.428 181.333 112.465L181.577 112.19Z" fill="#1B1C21"/>
<path d="M162.399 142.619C162.948 141.497 163.519 140.396 164.136 139.313C165.191 123.708 167.276 92.8814 167.43 77.5951C167.64 57.177 153.124 27.6375 153.124 27.6375C153.124 27.6375 151.741 37.9862 152.329 65.1336C152.788 86.5182 159.371 127.672 162.185 142.888L162.399 142.619Z" fill="#1B1C21"/>
<path d="M162.399 142.619C162.719 141.954 163.053 141.291 163.404 140.641C162.389 99.1579 153.116 27.6422 153.116 27.6422C153.116 27.6422 147.044 38.819 147.641 65.9616C148.113 87.3497 160.222 143.071 162.185 142.888L162.399 142.619Z" fill="#1B1C21"/>
<path d="M150.155 162.862C148.972 146.905 149.774 114.515 147.736 99.0743C144.964 78.4664 125.912 51.937 125.912 51.937C125.912 51.937 126.009 62.6611 130.574 89.8605C134.159 111.274 141.032 152.037 146.162 166.811C146.154 166.681 146.696 164.579 150.155 162.862Z" fill="#1B1C21"/>
<path d="M148.522 159.723C148.759 158.971 125.883 51.9647 125.883 51.9647C125.883 51.9647 122.295 65.1184 126.822 92.3288C130.407 113.743 140.165 148.367 145.299 163.071C145.306 162.966 148.472 159.83 148.522 159.723Z" fill="#1B1C21"/>
<path d="M131.708 182.916C132.063 181.594 132.383 180.212 132.772 178.948C130.184 161.644 124.925 127.665 121.388 111.021C116.659 88.7691 93.8373 60.2227 93.8373 60.2227C93.8373 60.2227 94.8451 71.8076 102.065 101.165C107.753 124.283 124.829 167.419 131.592 183.297L131.708 182.916Z" fill="#1B1C21"/>
<path d="M131.708 182.916C131.903 182.111 132.102 181.313 132.315 180.52C121.2 135.72 93.8373 60.2227 93.8373 60.2227C93.8373 60.2227 94.8451 71.8076 102.065 101.165C107.753 124.283 124.829 167.419 131.592 183.297L131.708 182.916Z" fill="#1B1C21"/>
<path d="M109.805 204.81C110.095 203.782 110.407 202.774 110.761 201.798C109.324 186.313 109.894 155.186 107.738 139.869C104.86 119.389 84.7951 87.6187 84.7951 87.6187C84.7951 87.6187 85.1777 97.7529 89.7454 125.13C93.3394 146.695 105.031 189.239 109.687 205.091L109.805 204.81Z" fill="#1B1C21"/>
<path d="M109.805 204.81C109.976 204.197 110.158 203.601 110.352 203.007C103.322 161.217 84.7951 87.6187 84.7951 87.6187C84.7951 87.6187 82.352 100.626 86.9196 128.003C90.5281 149.593 105.027 189.252 109.687 205.091L109.805 204.81Z" fill="#1B1C21"/>
<path d="M93.7697 229.042C93.9964 227.904 94.2593 226.791 94.5549 225.714C91.7969 209.549 88.6258 175.293 85.1052 159.433C80.3957 138.221 57.693 108.913 57.693 108.913C57.693 108.913 58.914 119.57 65.9733 147.834C71.5308 170.089 87.4232 213.304 93.6798 229.351L93.7697 229.042Z" fill="#1B1C21"/>
<path d="M93.77 229.042C93.9027 228.361 94.0954 227.669 94.214 227.041C83.3647 183.922 57.6885 108.905 57.6885 108.905C57.6885 108.905 56.7383 122.134 63.7963 150.377C69.3538 172.632 87.4235 213.304 93.6559 229.309L93.77 229.042Z" fill="#1B1C21"/>
<path d="M79.4336 239.947C79.5058 238.619 79.6177 237.302 79.7608 236C74.5025 219.959 64.0709 188.352 58.0443 172.955C50.0044 152.425 24.1223 128.049 24.1223 128.049C24.1223 128.049 26.9576 138.926 38.4786 165.912C47.556 187.174 70.4947 226.052 79.3741 240.328L79.4336 239.947Z" fill="#1B1C21"/>
<path d="M79.4336 239.947C79.4818 239.159 79.5301 238.371 79.6144 237.606C61.9352 196.429 24.1322 128.066 24.1322 128.066C24.1322 128.066 26.9674 138.943 38.4884 165.928C47.5707 187.199 70.5094 226.078 79.3791 240.336L79.4336 239.947Z" fill="#1B1C21"/>
<path d="M63.0285 250.134C63.0224 249.019 63.0414 247.89 63.1062 246.801C57.2519 232.613 52.1247 203.938 45.6301 190.287C36.918 172.001 4.80611 149.445 4.80611 149.445C4.80611 149.445 8.08234 158.993 20.4374 183.104C30.151 202.098 53.8619 237.433 62.9951 250.444L63.0285 250.134Z" fill="#1B1C21"/>
<path d="M63.0283 250.134C63.0229 249.466 63.0307 248.802 63.0099 248.165C44.0877 211.362 4.7723 149.464 4.7723 149.464C4.7723 149.464 4.87808 162.431 17.2331 186.542C26.9551 205.531 53.8496 237.451 62.978 250.454L63.0283 250.134Z" fill="#1B1C21"/>
<path d="M138.351 318.171C138.351 318.171 110.291 316.714 94.0515 308.478C75.0003 298.761 56.8587 287.356 39.8446 274.4C37.8716 273.191 87.8551 290.036 109.305 301.292C130.755 312.548 138.351 318.171 138.351 318.171Z" fill="#1B1C21"/>
<path d="M40.0331 274.358L39.8698 274.385C70.5478 291.631 138.351 318.171 138.351 318.171C138.351 318.171 129.905 305.323 108.458 294.054C88.245 283.448 43.55 275.123 40.0331 274.358Z" fill="#1B1C21"/>
<path d="M-31.8355 193.245C-31.8355 193.245 -6.63209 207.109 5.16822 221.834C18.9798 239.148 31.3224 257.585 42.0678 276.952C43.4232 278.932 3.89524 241.322 -11.5541 221.536C-27.0035 201.749 -31.8355 193.245 -31.8355 193.245Z" fill="#1B1C21"/>
<path d="M41.9085 276.91L42.0672 276.953C20.3999 247.617 -31.8311 193.254 -31.8311 193.254C-31.8311 193.254 -28.9131 208.69 -13.4541 228.493C1.07345 247.089 38.976 274.678 41.9085 276.91Z" fill="#1B1C21"/>
<path d="M224.806 244.281C224.806 244.281 189.75 249.513 162.76 242.53C113.874 229.87 103.897 222.837 101.403 222.041C98.9076 221.245 153.816 225.663 180.955 232.517C208.093 239.37 224.806 244.281 224.806 244.281Z" fill="#1B1C21"/>
<path d="M101.587 221.934L101.403 222.041C140.349 233.193 224.806 244.281 224.806 244.281C224.806 244.281 212.861 237.266 185.748 230.398C160.157 223.881 105.841 221.748 101.587 221.934Z" fill="#1B1C21"/>
<path d="M242.121 100.763C221.28 107.394 183 124.262 172.447 129.225C172.359 129.503 172.213 129.759 172.019 129.975L167.211 133.792C176.987 131.356 220.625 118.016 237.667 113.019C256.718 107.432 277.352 90.7213 277.352 90.7213C277.352 90.7213 267.04 92.8285 242.121 100.763Z" fill="#1B1C21"/>
<path d="M172.054 129.922C209.311 118.565 277.302 90.7507 277.302 90.7507C277.302 90.7507 265.577 91.7495 240.637 99.6853C219.793 106.33 182.983 124.272 172.438 129.23C172.351 129.481 172.221 129.715 172.054 129.922Z" fill="#1B1C21"/>
<path d="M243.973 123.032C219.252 128.907 169.093 144.123 153.189 149.794C152.906 150.292 148.846 155.656 148.495 156.093C163.455 153.416 218.292 140.028 238.635 135.653C262.533 130.444 288.172 113.762 288.172 113.762C288.172 113.762 275.259 115.627 243.973 123.032Z" fill="#1B1C21"/>
<path d="M158.435 150.533C205.531 139.657 288.172 113.762 288.172 113.762C288.172 113.762 275.292 115.607 244.016 123.029C219.295 128.904 175.105 143.805 159.186 149.451C158.964 149.83 158.713 150.192 158.435 150.533Z" fill="#1B1C21"/>
<path d="M286.459 138.995C286.459 138.995 257.02 155.992 232.671 161.271C183.915 171.886 138.227 170.073 135.072 170.418C131.916 170.764 208.368 149.974 240.814 144.85C273.261 139.727 286.459 138.995 286.459 138.995Z" fill="#1B1C21"/>
<path d="M145.834 167.638L145.692 167.72C193.317 161.113 286.439 138.962 286.439 138.962C286.439 138.962 270.026 138.541 237.59 143.682C207.015 148.541 149.975 166.075 145.834 167.638Z" fill="#1B1C21"/>
<path d="M217.689 180.433C195.656 179.343 151.258 181.023 126.378 182.304C125.337 183.911 127.245 184.174 126.012 185.545C126.715 186.627 176.272 191.674 207.535 191.629C235.938 191.647 269.623 184.522 269.623 184.522C269.623 184.522 254.777 182.246 217.689 180.433Z" fill="#1B1C21"/>
<path d="M132.532 184.945C189.4 186.734 269.623 184.522 269.623 184.522C269.623 184.522 254.792 182.271 217.689 180.433C195.656 179.343 159.637 180.602 134.76 181.87C134.075 182.935 133.331 183.962 132.532 184.945Z" fill="#1B1C21"/>
<path d="M198.812 209.872C176.443 206.516 139.503 203.991 113.931 202.64C112.68 204.093 111.31 205.438 109.834 206.661C133.304 211.596 167.961 218.727 186.239 221.817C214.792 226.724 251.348 219.228 251.348 219.228C251.348 219.228 236.5 215.533 198.812 209.872Z" fill="#1B1C21"/>
<path d="M111.277 205.403C169.187 213.065 251.373 219.27 251.373 219.27C251.373 219.27 234.561 211.263 196.877 205.611C174.495 202.251 112.67 201.792 113.931 202.64C113.1 203.612 112.214 204.534 111.277 205.403Z" fill="#1B1C21"/>
<path d="M154.67 259.759C137.614 252.105 108.88 241.867 88.9729 235.066C87.713 235.938 86.3834 236.706 84.9975 237.361C102.593 246.492 117.997 260.098 141.872 269.048C164.198 277.405 194.438 278.957 194.438 278.957C194.438 278.957 183.408 272.656 154.67 259.759Z" fill="#1B1C21"/>
<path d="M86.299 236.71C130.622 255.683 194.423 278.932 194.423 278.932C194.423 278.932 184.849 266.824 156.121 253.944C139.099 246.271 108.885 241.875 88.9357 235.098C88.0859 235.682 87.2058 236.22 86.299 236.71Z" fill="#1B1C21"/>
<path d="M120.546 275.613C105.407 267.367 74.716 252.288 69.0434 250.016C67.9519 250.927 66.7771 251.732 65.5345 252.422C81.1916 262.225 92.1854 277.897 111.596 286.338C131.736 295.13 162.639 297.271 162.639 297.271C162.639 297.271 146.045 289.486 120.546 275.613Z" fill="#1B1C21"/>
<path d="M66.7348 251.673C106.089 272.151 162.639 297.271 162.639 297.271C162.639 297.271 154.759 287.496 129.26 273.624C114.118 265.391 86.692 257.361 69.0014 250.041C68.2785 250.629 67.5217 251.174 66.7348 251.673Z" fill="#1B1C21"/>
<path d="M230.313 32.1418C230.313 32.1418 132.582 224.716 17.4874 292.407L15.7657 288.011C15.7657 288.011 130.787 210.063 230.313 32.1418Z" fill="#1B1C21"/>
</g>
</svg>
