<svg width="194" height="305" viewBox="0 0 194 305" fill="none" xmlns="http://www.w3.org/2000/svg">
<g opacity="0.05">
<path d="M151.212 304.315C151.212 304.315 159.584 283.43 156.765 268.901C153.945 254.372 142.293 218.877 141.876 217.056C141.459 215.234 142.578 258.278 145.777 277.676C148.975 297.073 151.212 304.315 151.212 304.315Z" fill="#1B1C21"/>
<path d="M141.825 217.176L141.89 217.063C147.228 245.087 151.226 304.323 151.226 304.323C151.226 304.323 145.034 295.602 141.854 276.206C138.825 257.907 141.596 220.084 141.825 217.176Z" fill="#1B1C21"/>
<path d="M172.591 257.27C162.322 243.314 145.884 212.512 141.286 203.234C141.31 203.126 141.326 203.017 141.335 202.907C141.364 202.727 141.383 202.532 141.392 202.369C141.4 202.253 141.398 202.137 141.388 202.021C146.747 208.052 167.306 230.905 175.888 241.838C185.609 254.168 190.642 279.657 190.642 279.657C190.642 279.657 184.965 274.097 172.591 257.27Z" fill="#1B1C21"/>
<path d="M141.307 202.89C141.336 202.71 141.355 202.515 141.365 202.353C141.369 202.311 141.368 202.27 141.361 202.229C160.151 226.867 190.67 279.673 190.67 279.673C190.67 279.673 182.778 273.461 170.377 256.618C160.111 242.655 144.103 211.998 139.539 202.711C139.536 202.635 141.303 203.01 141.307 202.89Z" fill="#1B1C21"/>
<path d="M140.216 202.625C140.351 203.639 140.536 204.597 140.74 205.557C137.588 218.228 131.325 243.221 127.526 255.473C122.449 271.851 103.382 293.175 103.382 293.175C103.382 293.175 104.921 284.708 112.36 263.042C118.214 245.999 133.987 214.11 140.133 202.362L140.216 202.625Z" fill="#1B1C21"/>
<path d="M140.216 202.625C140.304 203.218 140.4 203.798 140.507 204.374C129.087 237.392 103.387 293.168 103.387 293.168C103.387 293.168 101.321 282.713 108.757 261.083C114.612 244.04 136.653 205.555 140.153 202.345L140.216 202.625Z" fill="#1B1C21"/>
<path d="M132.982 172.375C133.007 173.466 133.062 174.554 133.161 175.631C128.402 188.394 118.956 213.57 113.582 225.745C106.399 242.012 84.2576 260.204 84.2576 260.204C84.2576 260.204 86.885 251.505 97.1147 230.205C105.172 213.415 125.213 183.158 132.935 172.067L132.982 172.375Z" fill="#1B1C21"/>
<path d="M132.982 172.375C132.997 173.03 133.028 173.674 133.07 174.297C117.373 206.801 84.2657 260.19 84.2657 260.19C84.2657 260.19 83.4768 249.144 93.7105 227.838C101.774 211.051 131.429 171.226 132.943 172.054L132.982 172.375Z" fill="#1B1C21"/>
<path d="M131.371 150.228C124.695 162.455 113.677 188.426 106.487 199.908C96.8728 215.247 72.2318 229.424 72.2318 229.424C72.2318 229.424 76.1766 220.971 89.5426 201.061C100.089 185.371 120.234 155.501 129.577 145.655C129.594 145.74 129.244 147.625 131.371 150.228Z" fill="#1B1C21"/>
<path d="M130.999 148.198C130.912 148.868 72.2479 229.396 72.2479 229.396C72.2479 229.396 74.1071 217.652 87.5062 197.734C98.0636 182.041 120.61 154.979 129.967 145.142C129.951 145.282 130.983 148.114 130.999 148.198Z" fill="#1B1C21"/>
<path d="M127.73 124.484C127.491 125.674 127.289 126.867 127.127 128.055C118.846 140.778 102.49 165.866 93.6774 177.777C81.929 193.718 53.5597 208.146 53.5597 208.146C53.5597 208.146 58.5282 199.33 74.8118 178.644C87.637 162.361 116.686 134.311 127.79 124.153L127.73 124.484Z" fill="#1B1C21"/>
<path d="M123.78 125.815C123.644 126.521 124.955 127.587 124.837 128.295C99.9093 159.82 53.5553 208.153 53.5553 208.153C53.5553 208.153 58.5238 199.337 74.8075 178.651C87.6408 162.354 123.791 125.699 123.78 125.815Z" fill="#1B1C21"/>
<path d="M115.991 102.523C115.832 103.366 115.719 104.162 115.635 104.955C109.282 115.554 98.9802 137.869 92.1723 148.121C83.0698 161.829 57.8535 178.396 57.8535 178.396C57.8535 178.396 61.6154 171.297 74.2819 153.182C84.2602 138.913 107.217 112.163 115.98 102.282L115.991 102.523Z" fill="#1B1C21"/>
<path d="M115.991 102.523C115.904 103.015 115.82 103.5 115.759 103.979C96.3498 131.617 57.8674 178.404 57.8674 178.404C57.8674 178.404 60.6091 168.405 73.2786 150.301C83.2639 136.036 107.242 112.168 115.973 102.278L115.991 102.523Z" fill="#1B1C21"/>
<path d="M112.633 78.3936C112.404 79.3744 112.211 80.3574 112.059 81.3174C104.057 93.135 89.2318 119.153 80.7228 130.472C69.354 145.594 40.833 160.674 40.833 160.674C40.833 160.674 45.626 152.664 61.3885 132.8C73.8019 117.149 101.948 88.6054 112.675 78.1275L112.633 78.3936Z" fill="#1B1C21"/>
<path d="M112.633 78.3936C112.5 78.9809 112.371 79.561 112.264 80.1353C88.1359 110.437 40.8107 160.68 40.8107 160.68C40.8107 160.68 44.7841 149.876 60.5628 129.984C72.9832 114.337 101.934 88.5971 112.657 78.1262L112.633 78.3936Z" fill="#1B1C21"/>
<path d="M105.158 64.5726C104.741 65.651 104.349 66.7346 104.005 67.8174C94.0591 78.6436 74.412 99.9693 64.108 109.99C50.338 123.389 21.0577 133.399 21.0577 133.399C21.0577 133.399 27.2126 125.801 46.0637 108.544C60.9019 94.9478 93.074 72.3774 105.25 64.2514L105.158 64.5726Z" fill="#1B1C21"/>
<path d="M105.158 64.5726C104.909 65.2146 104.671 65.8537 104.447 66.5008C75.6278 92.8406 21.0981 133.394 21.0981 133.394C21.0981 133.394 27.253 125.796 46.1041 108.539C60.9423 94.9429 93.1185 72.3655 105.29 64.2465L105.158 64.5726Z" fill="#1B1C21"/>
<path d="M95.8471 50.6085C95.4271 51.498 95.0503 52.3937 94.7067 53.2806C84.9673 62.4203 70.594 83.3294 60.521 91.7994C47.0363 103.165 13.4521 109.53 13.4521 109.53C13.4521 109.53 19.487 103.144 37.9478 88.459C52.4936 76.8926 83.9937 57.4144 95.9155 50.3766L95.8471 50.6085Z" fill="#1B1C21"/>
<path d="M95.8474 50.6084C95.5978 51.1379 95.3663 51.6685 95.1459 52.1961C66.906 74.567 13.4685 109.502 13.4685 109.502C13.4685 109.502 18.2143 99.2566 36.6872 84.5502C51.226 72.9797 84.0304 57.3512 95.9481 50.3205L95.8474 50.6084Z" fill="#1B1C21"/>
<path d="M180.045 23.7594C180.045 23.7594 157.271 14.8206 141.433 15.4998C122.839 16.3577 104.36 18.8796 86.217 23.0351C84.2061 23.2774 129.907 27.9117 150.948 26.7281C171.988 25.5445 180.045 23.7594 180.045 23.7594Z" fill="#1B1C21"/>
<path d="M86.3273 23.1358L86.201 23.0629C116.723 20.4302 180.037 23.7732 180.037 23.7732C180.037 23.7732 168.715 30.9231 147.665 32.1388C127.818 33.2634 89.3893 23.8278 86.3273 23.1358Z" fill="#1B1C21"/>
<path d="M0.162426 61.5913C0.162426 61.5913 25.1317 59.6635 39.7846 52.2379C56.9628 43.4739 73.3819 33.2954 88.8717 21.8078C90.6573 20.7244 45.7886 36.3293 26.4215 46.4593C7.05449 56.5893 0.162426 61.5913 0.162426 61.5913Z" fill="#1B1C21"/>
<path d="M88.6908 21.7968L88.8344 21.8236C61.0995 37.2917 0.125105 61.6071 0.125105 61.6071C0.125105 61.6071 7.99435 50.424 27.3544 40.29C45.6497 30.72 85.6035 22.4936 88.6908 21.7968Z" fill="#1B1C21"/>
<path d="M221.947 113.449C221.947 113.449 196.095 96.6521 172.152 92.4925C128.808 84.9253 118.412 86.922 116.111 86.6786C113.81 86.4353 158.981 102.682 182.965 106.997C206.95 111.311 221.947 113.449 221.947 113.449Z" fill="#1B1C21"/>
<path d="M116.272 86.8368L116.146 86.6986C151.057 91.8576 221.948 113.449 221.948 113.449C221.948 113.449 209.983 114.727 185.984 110.405C163.413 106.364 119.58 88.5127 116.272 86.8368Z" fill="#1B1C21"/>
<path d="M184.119 233.464C169.97 220.702 145.682 193.563 139.108 185.829C139.133 185.578 139.112 185.324 139.044 185.081L136.572 180.304C143.449 185.763 173.252 212.035 184.966 222.128C198.081 233.442 208.383 254.05 208.383 254.05C208.383 254.05 201.022 248.715 184.119 233.464Z" fill="#1B1C21"/>
<path d="M139.047 185.139C164.481 207.522 208.404 254.062 208.404 254.062C208.404 254.062 199.457 249.027 182.554 233.777C168.405 221.014 145.679 193.551 139.129 185.841C139.147 185.604 139.12 185.365 139.047 185.139Z" fill="#1B1C21"/>
<path d="M193.592 216.472C176.108 202.925 141.812 172.815 131.239 162.594C131.192 162.108 129.924 156.38 129.788 155.919C140.694 163.441 179.33 193.746 193.876 204.558C210.995 217.248 225.273 239.702 225.273 239.702C225.273 239.702 215.719 233.597 193.592 216.472Z" fill="#1B1C21"/>
<path d="M135.645 163.874C169.09 189.461 225.273 239.702 225.273 239.702C225.273 239.702 215.697 233.603 193.593 216.472C176.101 202.92 146.421 175.204 135.842 165.008C135.801 164.626 135.735 164.247 135.645 163.874Z" fill="#1B1C21"/>
<path d="M232.994 219.087C232.994 219.087 215.78 195.041 198.39 182.091C163.552 156.13 129.93 142.79 127.551 141.37C125.172 139.949 175.027 182.289 198.939 198.041C222.851 213.792 232.994 219.087 232.994 219.087Z" fill="#1B1C21"/>
<path d="M131.825 145.811L131.776 145.671C167.143 168.026 233.026 219.096 233.026 219.096C233.026 219.096 219.865 213.518 195.981 197.783C173.467 182.95 134.548 148.534 131.825 145.811Z" fill="#1B1C21"/>
<path d="M193.396 161.508C175.537 154.443 140.936 137.095 121.673 127.18C121.427 125.532 123.038 126.014 122.533 124.459C123.487 123.859 164.607 137.692 189.405 148.96C211.922 159.153 236.049 176.947 236.049 176.947C236.049 176.947 223.485 173.398 193.396 161.508Z" fill="#1B1C21"/>
<path d="M127.503 127.29C173.236 146.388 236.05 176.946 236.05 176.946C236.05 176.946 223.469 173.425 193.396 161.507C175.537 154.442 147.434 140.49 128.165 130.535C128.003 129.442 127.783 128.359 127.503 127.29Z" fill="#1B1C21"/>
<path d="M189.03 131.379C170.083 125.988 139.877 114.705 119.144 106.589C118.654 104.982 118.029 103.42 117.276 101.918C137.653 106.469 167.704 113.257 183.33 117.367C207.714 123.746 234.023 142.846 234.023 142.846C234.023 142.846 220.944 140.449 189.03 131.379Z" fill="#1B1C21"/>
<path d="M118.013 103.428C166.682 118.186 234.079 142.831 234.079 142.831C234.079 142.831 217.888 143.166 185.946 134.08C166.995 128.695 117.799 106.813 119.105 106.593C118.802 105.518 118.437 104.461 118.013 103.428Z" fill="#1B1C21"/>
<path d="M171.965 75.9474C155.677 75.899 129.23 73.6619 110.975 71.8511C110.288 70.7129 109.505 69.635 108.635 68.6289C125.902 67.7269 142.996 62.506 165.183 64.0047C185.875 65.4173 210.421 75.0796 210.421 75.0796C210.421 75.0796 199.374 76.0645 171.965 75.9474Z" fill="#1B1C21"/>
<path d="M109.485 69.6527C151.457 70.5531 210.421 75.0796 210.421 75.0796C210.421 75.0796 198.435 81.2568 171.067 81.1169C154.779 81.0685 129.251 73.674 110.996 71.8632C110.532 71.0998 110.028 70.3619 109.485 69.6527Z" fill="#1B1C21"/>
<path d="M150.621 51.0971C135.652 52.1841 105.887 53.1017 100.569 52.866C100.033 51.751 99.393 50.6892 98.6572 49.695C114.597 47.5591 128.941 39.1131 147.372 39.3701C166.51 39.6512 191.798 49.1148 191.798 49.1148C191.798 49.1148 175.82 49.2738 150.621 51.0971Z" fill="#1B1C21"/>
<path d="M99.3549 50.7064C137.912 48.6431 191.805 49.1012 191.805 49.1012C191.805 49.1012 182.037 54.0141 156.834 55.8444C141.868 56.9244 117.236 53.424 100.554 52.8583C100.2 52.1167 99.7993 51.3979 99.3549 50.7064Z" fill="#1B1C21"/>
<path d="M150.065 283.632C150.065 283.632 141.852 95.7774 74.9192 0.748791L71.978 3.6068C71.978 3.6068 135.161 106.752 150.065 283.632Z" fill="#1B1C21"/>
</g>
</svg>
