<svg width="56" height="56" viewBox="0 0 56 56" fill="none" xmlns="http://www.w3.org/2000/svg">
<rect width="56" height="56" fill="#A2238E"/>
<g clip-path="url(#clip0_34_620)">
<path d="M47.9618 47.2059L42.1024 31.7708C42.0537 31.6426 41.9616 31.5356 41.8423 31.4683L35.6012 27.9522L37.4233 25.0632C38.5416 23.2886 39.1327 21.2379 39.1327 19.1328C39.1327 12.9941 34.1386 8 27.9999 8C21.8613 8 16.8671 12.9941 16.8671 19.1328C16.8671 21.2385 17.4586 23.2893 18.5775 25.0633C18.6074 25.1109 20.3991 27.9524 20.3991 27.9524L14.1578 31.4683C14.0383 31.5356 13.9462 31.6426 13.8975 31.7708L8.03818 47.2059C7.9506 47.4366 8.01693 47.6973 8.20388 47.8582C8.39107 48.0191 8.65865 48.0456 8.87357 47.9245L18.2929 42.6177L27.7123 47.9245C27.8908 48.025 28.109 48.025 28.2875 47.9245L37.7069 42.6177L47.1262 47.9245C47.2161 47.9751 47.3152 47.9999 47.4138 47.9999C47.551 47.9999 47.6871 47.9519 47.796 47.8583C47.9831 47.6973 48.0494 47.4366 47.9618 47.2059ZM28.586 38.368C28.9525 38.2386 29.2703 37.9894 29.486 37.6479C29.5158 37.601 34.5039 29.6921 34.5039 29.6921L37.0445 41.6459L28.586 46.4112V38.368ZM19.5687 24.4381C18.568 22.8514 18.0391 21.0168 18.0391 19.1327C18.0391 13.6402 22.5075 9.17179 28 9.17179C33.4925 9.17179 37.9609 13.6402 37.9609 19.1327C37.9609 21.0165 37.4322 22.8511 36.4321 24.4381C36.3539 24.5621 28.6335 36.8052 28.4988 37.0167C28.4975 37.0185 28.4964 37.0203 28.4953 37.0221C28.3866 37.194 28.2015 37.2967 28 37.2967C27.7984 37.2967 27.6124 37.1935 27.5036 37.0224C27.4253 36.8983 19.6895 24.631 19.5714 24.4424C19.5705 24.441 19.5696 24.4396 19.5687 24.4381ZM14.9178 32.3851L20.38 29.308L19.4284 33.7849C19.3611 34.1014 19.5632 34.4125 19.8796 34.4799C19.9207 34.4886 19.9618 34.4928 20.0021 34.4928C20.2728 34.4928 20.516 34.304 20.5746 34.0286L21.4962 29.6925L26.5135 37.6495C26.7299 37.99 27.048 38.2387 27.4139 38.3679V46.4113L18.9556 41.646L20.0874 36.321C20.1546 36.0045 19.9526 35.6934 19.6361 35.626C19.3193 35.5584 19.0084 35.7609 18.9411 36.0773L17.7748 41.5645L9.70794 46.1093L14.9178 32.3851ZM38.2252 41.5645L35.6202 29.3079L41.0822 32.3851L46.2921 46.1093L38.2252 41.5645Z" fill="white"/>
<path d="M34.4453 19.1328C34.4453 15.5789 31.5539 12.6875 28 12.6875C24.4461 12.6875 21.5547 15.5789 21.5547 19.1328C21.5547 22.6867 24.4461 25.5781 28 25.5781C31.5539 25.5781 34.4453 22.6867 34.4453 19.1328ZM22.7266 19.1328C22.7266 16.225 25.0922 13.8594 28 13.8594C30.9078 13.8594 33.2734 16.225 33.2734 19.1328C33.2734 22.0406 30.9078 24.4062 28 24.4062C25.0922 24.4062 22.7266 22.0406 22.7266 19.1328Z" fill="white"/>
<path d="M32.1016 19.1328C32.1016 16.8713 30.2616 15.0312 28 15.0312C25.7384 15.0312 23.8984 16.8713 23.8984 19.1328C23.8984 21.3944 25.7384 23.2344 28 23.2344C30.2616 23.2344 32.1016 21.3944 32.1016 19.1328ZM25.0703 19.1328C25.0703 17.5173 26.3845 16.2031 28 16.2031C29.6155 16.2031 30.9297 17.5173 30.9297 19.1328C30.9297 20.7483 29.6155 22.0625 28 22.0625C26.3845 22.0625 25.0703 20.7483 25.0703 19.1328Z" fill="white"/>
</g>
<defs>
<clipPath id="clip0_34_620">
<rect width="40" height="40" fill="white" transform="translate(8 8)"/>
</clipPath>
</defs>
</svg>
