<svg width="48" height="49" viewBox="0 0 48 49" fill="none" xmlns="http://www.w3.org/2000/svg">
<rect width="48" height="48" transform="translate(0 0.62793)" fill="#A2238E"/>
<g clip-path="url(#clip0_34_276)">
<path d="M37.6965 29.4321L38.26 24.9136H12.619V15.9688C12.619 14.4685 13.8405 13.247 15.3408 13.247C16.1925 13.247 17.008 13.6541 17.519 14.3355L17.8211 14.738L17.1515 18.5763L18.401 20.5246L25.1408 15.4695L23.8913 13.5211L19.6831 13.3333L19.3845 12.9343C18.4348 11.6685 16.9228 10.9136 15.3396 10.9136C12.5525 10.9136 10.2856 13.1805 10.2856 15.9688V24.9136L10.8911 29.4321C11.1898 31.8215 12.3658 33.9133 14.0715 35.402L13.2035 38.9136H15.608L16.1353 36.7763C17.4011 37.3981 18.8198 37.747 20.3096 37.747H28.2791C29.7643 37.747 31.1783 37.4016 32.4406 36.7833L32.9668 38.9136H35.3713L34.5056 35.4125C36.2171 33.9238 37.399 31.8273 37.6988 29.4321H37.6965ZM20.3085 35.4136C16.7058 35.4136 13.6526 32.7175 13.2058 29.1428L12.969 27.247H35.6175L35.3818 29.1428C34.9338 32.7175 31.8806 35.4136 28.278 35.4136H20.3085Z" fill="white"/>
</g>
<defs>
<clipPath id="clip0_34_276">
<rect width="28" height="28" fill="white" transform="translate(10.2856 10.9136)"/>
</clipPath>
</defs>
</svg>
