<svg width="48" height="49" viewBox="0 0 48 49" fill="none" xmlns="http://www.w3.org/2000/svg">
<rect width="48" height="48" transform="translate(0 0.62793)" fill="#A2238E"/>
<path d="M34.2663 22.4714C34.2788 22.2496 34.2857 22.0005 34.2857 21.6565C34.2857 17.5948 33.3394 15.0245 33.2994 14.9171C33.1805 14.6016 32.9303 14.3548 32.6114 14.2416C32.4925 14.1994 29.6183 13.2005 24 13.2005C18.3817 13.2005 15.5074 14.1994 15.3885 14.2416C15.0708 14.3548 14.8194 14.6016 14.7005 14.9171C14.6605 15.0245 13.7143 17.5959 13.7143 21.6565C13.7143 22.0016 13.7223 22.2508 13.7337 22.4714C12.2114 22.8165 11.4285 23.9194 11.4297 25.8131C11.5908 30.1571 12.6034 32.8474 12.6468 32.9605C12.7657 33.2725 13.016 33.5159 13.3314 33.6279C13.3851 33.6474 13.8971 33.8234 14.8571 34.0405V34.9136C14.8571 35.5445 15.368 36.0565 16 36.0565C16.632 36.0565 17.1428 35.5445 17.1428 34.9136V34.4554C18.8537 34.7045 21.1325 34.9136 24 34.9136C26.8674 34.9136 29.1463 34.7045 30.8571 34.4554V34.9136C30.8571 35.5445 31.368 36.0565 32 36.0565C32.632 36.0565 33.1428 35.5445 33.1428 34.9136V34.0405C34.1028 33.8245 34.6148 33.6474 34.6685 33.6279C34.9828 33.5159 35.2331 33.2714 35.3531 32.9605C35.3965 32.8474 36.4103 30.1571 36.5714 25.7708C36.5714 23.9125 35.7885 22.8154 34.2663 22.4714ZM16.6788 16.2451C17.6903 15.9856 20.1428 15.4851 24 15.4851C27.8571 15.4851 30.312 15.9856 31.3211 16.2451C31.5657 17.1239 32 19.0485 32 21.6565C32 22.0291 31.9908 22.2645 31.9748 22.4839C30.5463 22.8348 29.7965 23.8874 29.7177 25.6771C29.6548 26.4531 29.576 27.0668 29.5131 27.4908C28.5771 27.7068 26.6617 28.0554 24 28.0554C21.3383 28.0554 19.4205 27.7068 18.4868 27.4896C18.424 27.0714 18.3463 26.4691 18.2845 25.7194C18.2034 23.8942 17.4537 22.8348 16.0251 22.4828C16.0091 22.2634 16 22.0268 16 21.6542C16 19.0451 16.4343 17.1194 16.6788 16.2428V16.2451ZM33.3863 31.6268C32.2137 31.9399 29.0663 32.6279 24 32.6279C18.9337 32.6279 15.784 31.9388 14.6137 31.6268C14.3417 30.7102 13.8217 28.6268 13.7143 25.7708C13.7143 24.7674 13.8525 24.6279 14.8571 24.6279C15.784 24.6279 15.952 24.7159 16.0034 25.8645C16.1451 27.6016 16.36 28.6074 16.368 28.6496C16.4525 29.0462 16.7417 29.3674 17.1268 29.4942C17.2331 29.5285 19.7508 30.3434 24 30.3434C28.2491 30.3434 30.7668 29.5296 30.8731 29.4942C31.2583 29.3674 31.5474 29.0451 31.632 28.6496C31.6411 28.6074 31.8548 27.6016 31.9988 25.8222C32.048 24.7171 32.216 24.6291 33.1428 24.6291C34.1474 24.6291 34.2857 24.7685 34.2868 25.7296C34.1794 28.6188 33.6583 30.7091 33.3863 31.6268Z" fill="white"/>
</svg>
