<svg width="48" height="49" viewBox="0 0 48 49" fill="none" xmlns="http://www.w3.org/2000/svg">
<rect width="48" height="48" transform="translate(0 0.62793)" fill="#A2238E"/>
<g clip-path="url(#clip0_34_258)">
<path d="M22.857 28.5902V28.6245C22.857 29.4748 21.9519 30.0188 21.201 29.6211L18.8856 28.3936C18.5165 28.1982 18.2856 27.8142 18.2856 27.3971V27.3628C18.2856 26.5125 19.1908 25.9685 19.9416 26.3662L22.257 27.5936C22.6262 27.7891 22.857 28.1731 22.857 28.5902ZM28.0742 26.4382L25.7588 27.6199C25.3816 27.8131 25.1439 28.2005 25.1439 28.6245V28.6793C25.1439 29.5216 26.0342 30.0668 26.7839 29.6839L29.0993 28.5022C29.4765 28.3091 29.7142 27.9216 29.7142 27.4976V27.4428C29.7142 26.6005 28.8239 26.0553 28.0742 26.4382ZM36.5713 20.2622V28.9936C36.5713 31.1148 35.4068 33.0496 33.5336 34.0428L26.6753 37.6771C25.8388 38.1205 24.9188 38.3433 23.9999 38.3433C23.081 38.3433 22.1622 38.1216 21.3233 37.6771L14.4673 34.0428C12.5919 33.0485 11.4285 31.1148 11.4285 28.9936V20.2622C11.4285 18.1411 12.593 16.2062 14.4662 15.2131L21.3245 11.5788C22.9999 10.6919 25.001 10.6931 26.6765 11.5788L33.5325 15.2131C35.4068 16.2062 36.5713 18.1411 36.5713 20.2622ZM14.0993 18.6976L22.3942 23.0851C23.401 23.6176 24.601 23.6188 25.6056 23.0851L33.9016 18.6976C33.5873 18.0851 33.0959 17.5673 32.4628 17.2313L25.6068 13.5982C25.1039 13.3319 24.5519 13.1982 24.001 13.1982C23.4502 13.1982 22.8982 13.3319 22.3965 13.5982L15.5382 17.2325C14.9062 17.5673 14.4148 18.0851 14.1005 18.6976H14.0993ZM34.2856 28.9925V25.6919L33.6799 26.0325C32.9279 26.4553 31.9999 25.9113 31.9999 25.0496C31.9999 24.6416 32.2205 24.2656 32.5759 24.0656L34.2856 23.1068V21.0793L26.6753 25.1045C25.8388 25.5479 24.9188 25.7708 23.9999 25.7708C23.081 25.7708 22.1622 25.5491 21.3233 25.1045L13.7142 21.0793V23.0473L15.4056 23.9571C15.7713 24.1536 15.9999 24.5353 15.9999 24.9502V24.9788C15.9999 25.8313 15.0902 26.3753 14.3393 25.9731L13.7142 25.6382V28.9936C13.7142 30.2668 14.4125 31.4268 15.5382 32.0233L22.3942 35.6565C23.401 36.1902 24.601 36.1902 25.6056 35.6565L32.4639 32.0222C33.5873 31.4268 34.2856 30.2656 34.2856 28.9925Z" fill="white"/>
</g>
<defs>
<clipPath id="clip0_34_258">
<rect width="27.4286" height="27.4286" fill="white" transform="translate(10.2856 10.9136)"/>
</clipPath>
</defs>
</svg>
