<svg width="56" height="56" viewBox="0 0 56 56" fill="none" xmlns="http://www.w3.org/2000/svg">
<rect width="56" height="56" fill="#A2238E"/>
<g clip-path="url(#clip0_34_496)">
<path fill-rule="evenodd" clip-rule="evenodd" d="M19.3358 32.0434C19.3695 32.1819 19.452 32.3069 19.572 32.3945C21.8691 34.0648 24.1658 34.0648 26.4624 32.3945C26.5824 32.3069 26.6649 32.1819 26.6987 32.0434C27.3612 32.2267 28.0128 32.3612 28.647 32.3612C29.5766 32.3612 30.4695 32.4668 31.3008 32.6753C31.6349 32.7591 31.9753 32.5593 32.0603 32.2292C32.1453 31.8995 31.9428 31.5636 31.6083 31.4798C30.6808 31.2475 29.6841 31.1278 28.647 31.1278C27.8574 31.1278 27.0403 30.8684 26.2053 30.6074C26.0053 30.5449 25.787 30.5856 25.6237 30.7159C25.4608 30.8458 25.3745 31.0481 25.3945 31.2541C25.4058 31.3708 25.4174 31.4867 25.4299 31.6019C23.8216 32.6457 22.2133 32.6457 20.6049 31.6019C20.617 31.4863 20.6287 31.3704 20.6399 31.2541C20.6599 31.0481 20.5737 30.8458 20.4108 30.7159C20.2474 30.5856 20.0291 30.5449 19.8291 30.6074C18.9941 30.8684 18.177 31.1278 17.3874 31.1278C12.2941 31.1278 8.20825 33.9789 8.20825 39.0043V45.0625C8.20825 45.5529 8.40575 46.0236 8.75742 46.3706C9.10909 46.7176 9.58617 46.9125 10.0833 46.9125H32.9466C33.2916 46.9125 33.5716 46.6362 33.5716 46.2958C33.5716 45.9554 33.2916 45.6791 32.9466 45.6791H10.0833C9.91742 45.6791 9.75867 45.6142 9.64117 45.4982C9.52409 45.3827 9.45825 45.2261 9.45825 45.0625V39.0043C9.45825 34.707 13.032 32.3612 17.3874 32.3612C18.0216 32.3612 18.6737 32.2267 19.3358 32.0434Z" fill="white"/>
<path fill-rule="evenodd" clip-rule="evenodd" d="M20.6541 31.1064C20.7312 30.2768 20.7845 29.4192 20.812 28.5543C20.9008 28.6048 20.9887 28.6542 21.0754 28.7027C22.2616 29.4213 23.7566 29.4225 24.9441 28.7051C25.0299 28.6579 25.1254 28.604 25.2224 28.5489C25.2495 29.416 25.3033 30.2752 25.3804 31.1064C25.412 31.4452 25.7166 31.6952 26.0599 31.6639C26.4037 31.6327 26.657 31.3326 26.6254 30.9934C26.5191 29.8538 26.4595 28.6595 26.452 27.4677C26.4508 27.2436 26.3266 27.0381 26.1274 26.9304C25.9283 26.8227 25.6858 26.8301 25.4937 26.9497C25.1033 27.1927 24.6954 27.4282 24.317 27.6383C24.3104 27.6424 24.3033 27.6461 24.2962 27.6502C23.5066 28.1296 22.5108 28.1284 21.7224 27.6474C21.7154 27.6432 21.7083 27.6391 21.7012 27.635C21.3283 27.4266 20.9266 27.1939 20.5416 26.9534C20.3499 26.8334 20.107 26.8255 19.9074 26.9333C19.7083 27.0406 19.5837 27.2465 19.5824 27.4706C19.5749 28.6616 19.5154 29.855 19.4091 30.9934C19.3779 31.3326 19.6308 31.6327 19.9745 31.6639C20.3179 31.6952 20.6224 31.4452 20.6541 31.1064Z" fill="white"/>
<path fill-rule="evenodd" clip-rule="evenodd" d="M29.8046 16.8918C29.8046 14.9908 28.955 13.186 27.4825 11.9597C25.9908 10.7136 24.4925 10.0961 23.0033 10.0875C21.5108 10.0793 20.01 10.6811 18.5183 11.9539C17.0725 13.1778 16.24 14.9633 16.2396 16.8425C16.23 18.4071 16.23 20.4964 16.23 22.0344C16.23 23.8104 16.945 25.5136 18.2179 26.7696C18.835 27.3784 20.0525 28.1311 21.0775 28.7038C22.2616 29.4212 23.7566 29.422 24.9441 28.7055C25.9725 28.1336 27.1987 27.3792 27.8166 26.7696C29.0896 25.5136 29.8046 23.8104 29.8046 22.0344V16.8918ZM28.5546 16.8918V22.0344C28.5546 23.4835 27.9712 24.8731 26.9329 25.8976C26.3729 26.4497 25.2508 27.1198 24.3171 27.6382C24.3104 27.6423 24.3033 27.646 24.2962 27.6502C23.5066 28.1295 22.5108 28.1283 21.7225 27.6473C21.7154 27.6432 21.7083 27.6391 21.7012 27.6349C20.7737 27.1174 19.6604 26.4489 19.1016 25.8976C18.0633 24.8731 17.48 23.4835 17.48 22.0344C17.48 20.4985 17.48 18.4113 17.4896 16.8486C17.4896 16.8474 17.4896 16.8462 17.4896 16.8449C17.4896 15.3246 18.1625 13.88 19.3321 12.89C19.3325 12.8896 19.3333 12.8892 19.3341 12.8884C20.5575 11.8442 21.7721 11.3142 22.9962 11.3208C24.2246 11.3278 25.4446 11.8734 26.675 12.9015C26.675 12.9015 26.6754 12.902 26.6758 12.902C27.8671 13.894 28.5546 15.3538 28.5546 16.8918Z" fill="white"/>
<path fill-rule="evenodd" clip-rule="evenodd" d="M21.142 25.3924C22.3895 26.0317 23.637 26.0124 24.8845 25.397C25.1928 25.2444 25.3178 24.8736 25.1636 24.5694C25.0095 24.2652 24.6336 24.1414 24.3249 24.2939C23.4557 24.7227 22.587 24.7433 21.7178 24.298C21.4116 24.141 21.0341 24.259 20.8749 24.5612C20.7161 24.8633 20.8357 25.2358 21.142 25.3924Z" fill="white"/>
<path fill-rule="evenodd" clip-rule="evenodd" d="M16.8881 18.1676C19.2536 18.0649 21.1573 17.4947 22.5723 16.4541C22.579 16.4492 22.5852 16.4443 22.5915 16.4393C22.8136 16.2626 23.1311 16.263 23.3519 16.441C23.3536 16.4422 23.3552 16.4434 23.3565 16.4447C24.7531 17.5469 26.6948 18.1278 29.169 18.1681C29.514 18.1738 29.7986 17.9021 29.8044 17.5617C29.8098 17.2213 29.5344 16.9405 29.1898 16.9351C27.044 16.9002 25.3481 16.4373 24.1373 15.4814C23.4661 14.9412 22.4977 14.9363 21.8161 15.472C20.5781 16.3789 18.9027 16.8455 16.8331 16.9355C16.4886 16.9503 16.2211 17.2385 16.2365 17.5785C16.2515 17.9185 16.5436 18.1824 16.8881 18.1676Z" fill="white"/>
<path fill-rule="evenodd" clip-rule="evenodd" d="M13.947 46.2957V41.5852C13.947 41.2448 13.667 40.9685 13.322 40.9685C12.977 40.9685 12.697 41.2448 12.697 41.5852V46.2957C12.697 46.6361 12.977 46.9124 13.322 46.9124C13.667 46.9124 13.947 46.6361 13.947 46.2957Z" fill="white"/>
<path fill-rule="evenodd" clip-rule="evenodd" d="M21.5754 36.4726C21.2137 38.1808 20.8167 40.0752 20.6583 40.8958C20.5887 41.2567 20.6612 41.63 20.8621 41.9396C21.0775 42.2722 21.4525 42.8514 21.7883 43.3703C22.0562 43.7838 22.5196 44.0342 23.0175 44.0342C23.515 44.0342 23.9783 43.7838 24.2462 43.3703C24.5821 42.8514 24.9575 42.2722 25.1725 41.9396C25.3733 41.63 25.4462 41.2567 25.3762 40.8958C25.0792 39.3549 23.9383 34.022 23.7758 33.2627C23.7046 32.9297 23.3729 32.7163 23.0354 32.7862C22.6979 32.8565 22.4817 33.1838 22.5529 33.5172C22.7146 34.274 23.8521 39.5905 24.1483 41.1264C24.1583 41.1778 24.1479 41.2313 24.1192 41.2757L23.1929 42.7059C23.1546 42.7651 23.0883 42.8009 23.0175 42.8009C22.9462 42.8009 22.88 42.7651 22.8417 42.7059L21.9154 41.2757C21.8867 41.2313 21.8762 41.1778 21.8862 41.1264C22.0437 40.31 22.4392 38.4246 22.7992 36.7251C22.8696 36.3917 22.6525 36.0648 22.315 35.9953C21.9775 35.9255 21.6458 36.1396 21.5754 36.4726Z" fill="white"/>
<path fill-rule="evenodd" clip-rule="evenodd" d="M28.3374 31.3371C28.3374 31.3371 26.8912 32.9519 26.0416 33.9004C26.0029 33.9435 25.9479 33.9686 25.8891 33.9694C25.8308 33.9707 25.7745 33.9472 25.7345 33.9053L24.4579 32.5749C24.2208 32.3279 23.8249 32.3172 23.5745 32.5511C23.3241 32.785 23.3133 33.1756 23.5504 33.4231C23.9729 33.8634 24.4541 34.3649 24.8266 34.7534C25.1079 35.0465 25.5012 35.2098 25.9108 35.2028C26.3199 35.1958 26.7074 35.0194 26.9783 34.7168C27.8279 33.7684 29.2741 32.154 29.2741 32.154C29.5024 31.8987 29.4779 31.5089 29.2195 31.2832C28.9612 31.0579 28.5658 31.0822 28.3374 31.3371Z" fill="white"/>
<path fill-rule="evenodd" clip-rule="evenodd" d="M21.5575 32.5951L20.3 33.9053C20.26 33.9472 20.2038 33.9707 20.1454 33.9694C20.0867 33.9686 20.0317 33.9435 19.9929 33.9004L17.6971 31.3371C17.4688 31.0822 17.0733 31.0579 16.815 31.2832C16.5567 31.5089 16.5321 31.8987 16.7604 32.154C16.7604 32.154 18.2067 33.7684 19.0563 34.7168C19.3271 35.0194 19.7146 35.1958 20.1238 35.2028C20.5333 35.2098 20.9267 35.0465 21.2079 34.7534C21.575 34.3707 22.0471 33.8786 22.465 33.4428C22.7021 33.1957 22.6913 32.8052 22.4408 32.5712C22.1904 32.3373 21.7946 32.348 21.5575 32.5951Z" fill="white"/>
<path fill-rule="evenodd" clip-rule="evenodd" d="M42.3945 43.0844V45.2144C42.3945 46.1522 43.1649 46.9123 44.1153 46.9123H44.1166C45.067 46.9123 45.8374 46.1522 45.8374 45.2144V43.0844C45.8374 42.744 45.5574 42.4678 45.2124 42.4678C44.8678 42.4678 44.5874 42.744 44.5874 43.0844V45.2144C44.5874 45.4709 44.377 45.679 44.1166 45.679H44.1153C43.8553 45.679 43.6445 45.4709 43.6445 45.2144V43.0844C43.6445 42.744 43.3645 42.4678 43.0195 42.4678C42.6745 42.4678 42.3945 42.744 42.3945 43.0844ZM35.0461 43.0844V45.2144C35.0461 46.1522 35.8166 46.9123 36.767 46.9123H36.7686C37.7191 46.9123 38.4895 46.1522 38.4895 45.2144V43.0844C38.4895 42.744 38.2095 42.4678 37.8645 42.4678C37.5195 42.4678 37.2395 42.744 37.2395 43.0844V45.2144C37.2395 45.4709 37.0286 45.679 36.7686 45.679H36.767C36.507 45.679 36.2961 45.4709 36.2961 45.2144V43.0844C36.2961 42.744 36.0161 42.4678 35.6711 42.4678C35.3261 42.4678 35.0461 42.744 35.0461 43.0844Z" fill="white"/>
<path fill-rule="evenodd" clip-rule="evenodd" d="M44.1019 25.5868V20.8237C44.1019 20.4833 43.8219 20.207 43.4769 20.207C43.1323 20.207 42.8519 20.4833 42.8519 20.8237V25.5868C42.8519 25.9268 43.1323 26.2035 43.4769 26.2035C43.8219 26.2035 44.1019 25.9268 44.1019 25.5868ZM36.7815 20.8237V25.5868C36.7815 25.9268 37.0615 26.2035 37.4065 26.2035C37.7515 26.2035 38.0315 25.9268 38.0315 25.5868V20.8237C38.0315 20.4833 37.7515 20.207 37.4065 20.207C37.0615 20.207 36.7815 20.4833 36.7815 20.8237Z" fill="white"/>
<path fill-rule="evenodd" clip-rule="evenodd" d="M45.4007 18.978C45.4007 18.5964 45.2469 18.2306 44.9732 17.9605C44.6998 17.6908 44.329 17.5391 43.9423 17.5391H36.9415C36.5548 17.5391 36.184 17.6908 35.9102 17.9605C35.6369 18.2306 35.4832 18.5964 35.4832 18.978V20.0016C35.4832 20.3831 35.6369 20.749 35.9102 21.0187C36.184 21.2888 36.5548 21.4405 36.9415 21.4405H43.9423C44.329 21.4405 44.6998 21.2888 44.9732 21.0187C45.2469 20.749 45.4007 20.3831 45.4007 20.0016V18.978ZM44.1507 18.978V20.0016C44.1507 20.0559 44.1286 20.1081 44.0894 20.1467C44.0502 20.1854 43.9973 20.2072 43.9423 20.2072H36.9415C36.8865 20.2072 36.8332 20.1854 36.7944 20.1467C36.7552 20.1081 36.7332 20.0559 36.7332 20.0016V18.978C36.7332 18.9233 36.7552 18.8711 36.7944 18.8328C36.8332 18.7942 36.8865 18.7724 36.9415 18.7724H43.9423C43.9973 18.7724 44.0502 18.7942 44.0894 18.8328C44.1286 18.8711 44.1507 18.9233 44.1507 18.978Z" fill="white"/>
<path fill-rule="evenodd" clip-rule="evenodd" d="M47.7917 39.3516V27.91C47.7917 27.1605 47.49 26.4419 46.9529 25.912C46.4159 25.382 45.6871 25.084 44.9275 25.084H35.9567C35.1971 25.084 34.4684 25.382 33.9313 25.912C33.3942 26.4419 33.0925 27.1605 33.0925 27.91V39.3516C33.0925 39.692 33.3725 39.9683 33.7175 39.9683C34.0625 39.9683 34.3425 39.692 34.3425 39.3516V27.91C34.3425 27.4877 34.5125 27.0828 34.815 26.7839C35.1179 26.4855 35.5284 26.3173 35.9567 26.3173H44.9275C45.3559 26.3173 45.7663 26.4855 46.0688 26.7839C46.3717 27.0828 46.5417 27.4877 46.5417 27.91V39.3516C46.5417 39.692 46.8217 39.9683 47.1667 39.9683C47.5117 39.9683 47.7917 39.692 47.7917 39.3516Z" fill="white"/>
<path fill-rule="evenodd" clip-rule="evenodd" d="M43.6311 28.3598V39.3517C43.6311 39.6921 43.9111 39.9684 44.2561 39.9684C44.6011 39.9684 44.8811 39.6921 44.8811 39.3517V28.3598C44.8811 28.0198 44.6011 27.7432 44.2561 27.7432C43.9111 27.7432 43.6311 28.0198 43.6311 28.3598Z" fill="white"/>
<path fill-rule="evenodd" clip-rule="evenodd" d="M39.8169 28.3598V39.3517C39.8169 39.6921 40.0969 39.9684 40.4419 39.9684C40.7869 39.9684 41.0669 39.6921 41.0669 39.3517V28.3598C41.0669 28.0198 40.7869 27.7432 40.4419 27.7432C40.0969 27.7432 39.8169 28.0198 39.8169 28.3598Z" fill="white"/>
<path fill-rule="evenodd" clip-rule="evenodd" d="M36.0029 28.3598V37.1375C36.0029 37.4779 36.2829 37.7541 36.6279 37.7541C36.9729 37.7541 37.2529 37.4779 37.2529 37.1375V28.3598C37.2529 28.0198 36.9729 27.7432 36.6279 27.7432C36.2829 27.7432 36.0029 28.0198 36.0029 28.3598Z" fill="white"/>
<path fill-rule="evenodd" clip-rule="evenodd" d="M33.0925 39.3515V41.8511C33.0925 42.3419 33.29 42.8123 33.6417 43.1592C33.9934 43.5062 34.47 43.7011 34.9675 43.7011H45.9167C46.4138 43.7011 46.8909 43.5062 47.2425 43.1592C47.5942 42.8123 47.7917 42.3419 47.7917 41.8511C47.7917 40.7641 47.7917 39.3515 47.7917 39.3515C47.7917 39.0111 47.5117 38.7349 47.1667 38.7349H36.1079C35.7629 38.7349 35.4829 39.0111 35.4829 39.3515C35.4829 39.6919 35.7629 39.9682 36.1079 39.9682H46.5417V41.8511C46.5417 42.0147 46.4759 42.1718 46.3588 42.2873C46.2413 42.4028 46.0825 42.4677 45.9167 42.4677C43.3538 42.4677 37.53 42.4677 34.9675 42.4677C34.8017 42.4677 34.6425 42.4028 34.5254 42.2873C34.4084 42.1718 34.3425 42.0147 34.3425 41.8511V39.3515C34.3425 39.0111 34.0625 38.7349 33.7175 38.7349C33.3725 38.7349 33.0925 39.0111 33.0925 39.3515Z" fill="white"/>
</g>
<defs>
<clipPath id="clip0_34_496">
<rect width="40" height="37" fill="white" transform="translate(8 10)"/>
</clipPath>
</defs>
</svg>
